<svg width="926" height="1024" viewBox="0 0 926 1024" fill="none" xmlns="http://www.w3.org/2000/svg">
<g clip-path="url(#clip0_24_580)">
<path d="M-102.484 -146.602C-100.768 -151.53 -95.282 -154.171 -90.2188 -152.497C-86.1221 -151.141 -83.5602 -147.356 -83.6569 -143.348L135.88 -118.541C135.964 -118.906 136.049 -119.272 136.182 -119.625C137.898 -124.554 143.384 -127.207 148.447 -125.52C153.499 -123.846 156.218 -118.493 154.49 -113.553C153.281 -110.087 150.212 -107.764 146.744 -107.257L154.792 38.7314C155.698 38.7668 156.616 38.9201 157.523 39.2266C161.015 40.3821 163.384 43.2825 163.952 46.5956L262.246 39.4978C262.282 38.6371 262.439 37.7646 262.741 36.904C264.457 31.9756 269.944 29.3345 275.007 31.0088C280.022 32.6712 282.729 37.9651 281.085 42.8699L399.766 98.0607C401.965 94.0755 406.835 92.0948 411.379 93.6039C412.757 94.0638 413.965 94.8066 414.944 95.7262L511.945 13.559C510.193 11.1655 509.601 8.02927 510.64 5.03452C512.356 0.106125 517.842 -2.54671 522.905 -0.860687C527.957 0.813553 530.676 6.16638 528.948 11.1066C528.549 12.2502 527.945 13.2642 527.195 14.1367L608.68 94.5118C611.182 92.5192 614.638 91.7764 617.913 92.8611C620.354 93.6747 622.251 95.3489 623.363 97.4122L773.813 37.0219C773.233 35.1943 773.209 33.1782 773.898 31.221C775.613 26.2926 781.1 23.6515 786.163 25.3258C791.214 27 793.921 32.3528 792.205 37.293C791.118 40.4057 788.532 42.5987 785.499 43.3769L823.782 269.222C825.026 269.139 826.319 269.281 827.576 269.705C827.83 269.788 828.072 269.882 828.313 269.988L957.991 223.216C957.507 221.471 957.531 219.584 958.172 217.745C959.888 212.817 965.374 210.164 970.437 211.85C975.489 213.524 978.208 218.877 976.48 223.817C974.764 228.745 969.277 231.398 964.214 229.712C963.912 229.606 963.61 229.5 963.32 229.37L810.706 489.95L811.214 490.398L810.211 490.81L808.435 493.852L808.604 491.471L641.078 559.525C641.67 561.364 641.695 563.392 641.006 565.361C639.64 569.264 635.918 571.728 631.918 571.751L619.592 711.22C620.064 711.303 620.523 711.409 620.982 711.562C626.033 713.236 628.74 718.589 627.024 723.529C625.417 728.151 620.511 730.757 615.737 729.695L704.183 1100.5C705.621 1100.31 707.131 1100.42 708.606 1100.9C713.657 1102.58 716.364 1107.93 714.648 1112.87C712.932 1117.8 707.446 1120.44 702.382 1118.77C700.328 1118.08 698.672 1116.8 697.536 1115.18L415.923 1269.06C416.877 1271.15 417.071 1273.57 416.249 1275.92C415.5 1278.08 414.025 1279.8 412.189 1280.91L473.057 1400.19C475.1 1399.41 477.42 1399.31 479.655 1400.05C484.707 1401.72 487.426 1407.08 485.698 1412.02C484.453 1415.58 481.251 1417.94 477.662 1418.35L480.586 1539.64C481.396 1539.7 482.217 1539.84 483.027 1540.11C488.078 1541.78 490.785 1547.14 489.069 1552.08C487.353 1557 481.867 1559.64 476.804 1557.97C476.308 1557.81 475.837 1557.59 475.378 1557.36L352.564 1739.93C355.658 1742.34 357.047 1746.46 355.694 1750.33C353.978 1755.26 348.492 1757.9 343.429 1756.23C340.009 1755.09 337.676 1752.29 337.048 1749.06L209.304 1761.07C209.365 1762.24 209.22 1763.43 208.809 1764.6C207.093 1769.53 201.607 1772.18 196.543 1770.49C191.492 1768.82 188.785 1763.47 190.501 1758.53C190.549 1758.4 190.598 1758.28 190.646 1758.16L68.3885 1696.01C65.9113 1698.97 61.73 1700.28 57.8026 1698.98C52.7513 1697.31 50.0445 1691.96 51.7604 1687.02C53.0656 1683.27 56.5579 1680.85 60.3766 1680.64L83.3007 1505.48C83.3007 1505.48 83.2281 1505.46 83.1918 1505.44C78.1406 1503.77 75.4337 1498.42 77.1497 1493.48C78.8657 1488.55 84.3519 1485.91 89.4153 1487.58C90.9984 1488.11 92.3639 1489 93.4152 1490.13L214.017 1396.78C212.531 1394.46 212.072 1391.54 213.05 1388.74C214.343 1385.03 217.763 1382.62 221.534 1382.36L231.382 1163.74C230.839 1163.65 230.307 1163.53 229.775 1163.36C224.724 1161.68 222.017 1156.33 223.733 1151.39C224.531 1149.1 226.138 1147.32 228.144 1146.21L178.066 1037.31C176.121 1037.96 173.933 1038.01 171.831 1037.32C166.779 1035.64 164.06 1030.29 165.788 1025.35C166.634 1022.93 168.375 1021.07 170.538 1020L96.1705 839.063C94.3216 839.606 92.2793 839.617 90.3095 838.957C85.2582 837.283 82.5514 831.93 84.2674 826.99C85.9833 822.061 91.4697 819.42 96.533 821.095C98.6357 821.79 100.327 823.134 101.475 824.82L217.981 763.675C217.087 761.612 216.917 759.254 217.715 756.967C219.262 752.533 223.842 749.963 228.434 750.694L308.166 451.949L309.024 452.173C305.737 451.077 303.453 448.424 302.716 445.347L179.383 461.429C179.432 462.561 179.275 463.704 178.888 464.836C177.172 469.765 171.686 472.417 166.622 470.731C161.559 469.045 158.864 463.704 160.58 458.764C161.631 455.746 164.097 453.588 167.021 452.751L115.469 195.131C114.224 195.214 112.944 195.072 111.687 194.648C107.82 193.374 105.343 189.943 105.149 186.194L-8.60089 184.213C-8.68549 184.708 -8.80634 185.203 -8.97546 185.699C-10.6915 190.627 -16.1778 193.28 -21.2411 191.594C-26.2924 189.92 -29.0114 184.567 -27.2833 179.627C-26.3287 176.868 -24.1898 174.84 -21.6037 173.861L-92.1038 -134.222C-93.5177 -134.045 -94.9921 -134.163 -96.4421 -134.634C-101.493 -136.309 -104.2 -141.662 -102.484 -146.602ZM-8.46796 182.421L105.222 184.402C105.306 183.812 105.439 183.211 105.645 182.633C106.273 180.829 107.409 179.332 108.847 178.235L42.528 73.2301L-12.9392 174.675C-10.2081 176.372 -8.54053 179.308 -8.4801 182.433L-8.46796 182.421ZM178.284 457.337L396.177 368.933C395.585 367.094 395.56 365.066 396.249 363.097C396.406 362.649 396.6 362.236 396.817 361.824L306.124 305.489L176.652 455.121C177.317 455.781 177.873 456.524 178.308 457.326L178.284 457.337ZM236.047 762.956C235.841 763.546 235.576 764.1 235.273 764.619L250.294 774.923L379.488 730.356L236.482 758.888C236.627 760.221 236.506 761.6 236.035 762.944L236.047 762.956ZM184.64 1028.37L342.172 1043.37C342.256 1042.94 342.353 1042.53 342.498 1042.12C342.8 1041.23 343.235 1040.43 343.755 1039.71L245.618 957.922L182.284 1022.17C183.794 1023.88 184.652 1026.08 184.64 1028.37ZM62.2014 1680.64C62.8176 1680.72 63.446 1680.85 64.0624 1681.06C67.2526 1682.12 69.5003 1684.65 70.3099 1687.61L158.042 1669L87.8685 1505.76C86.9622 1505.9 86.0317 1505.93 85.1012 1505.8L71.3854 1610.53L62.2134 1680.63L62.2014 1680.64ZM696.497 1106.4C696.908 1105.35 697.488 1104.41 698.201 1103.6L558.784 962.013L536.343 1053.73C540.947 1055.25 543.594 1059.83 542.736 1064.35L696.485 1106.4H696.497ZM406.968 111.844L497.734 161.116L415.56 108.696C413.445 111.054 410.219 112.28 406.956 111.844H406.968ZM268.795 48.8594C267.539 48.4467 266.427 47.7983 265.497 46.9965L211.274 97.1292L359.537 227.908C360.045 227.46 360.6 227.059 361.18 226.729L275.49 48.6825C273.424 49.4961 271.067 49.614 268.783 48.8594H268.795ZM150.925 56.924C146.115 55.1083 143.577 49.9087 145.257 45.0983C146.466 41.6319 149.535 39.3092 153.003 38.8022L145.064 -105.229L116.339 175.759L150.925 56.924ZM160.955 55.0847C158.755 57.0537 155.686 57.9616 152.641 57.4074L117.91 176.726C119.01 177.092 119.989 177.634 120.847 178.306L208.64 97.1411L160.955 55.0729V55.0847ZM122.14 179.532C123.807 181.431 124.665 183.942 124.424 186.512L356.83 232.141C356.866 232.035 356.891 231.917 356.927 231.811C357.265 230.844 357.748 229.972 358.341 229.193L209.969 98.3201L122.14 179.532ZM321.471 445.653L410.412 486.849C411.814 484.538 414.158 482.97 416.768 482.427L408.853 413.395L321.423 440.536C321.906 442.163 321.955 443.92 321.459 445.653H321.471ZM470.798 1545.94C471.668 1543.42 473.541 1541.51 475.813 1540.46L443.282 1453.44L304.299 1633.29C304.94 1633.85 305.484 1634.5 305.943 1635.2L470.979 1552.49C470.145 1550.47 470.012 1548.16 470.786 1545.94H470.798ZM426.327 1422.77C426.025 1422.68 425.747 1422.56 425.457 1422.44L305.326 1629.07L442.544 1451.49L431.886 1422.96C430.11 1423.42 428.188 1423.4 426.315 1422.77H426.327ZM300.904 1631.32C301.206 1631.41 301.484 1631.53 301.774 1631.65L423.922 1421.56C422.231 1420.41 420.998 1418.79 420.333 1416.93L243.781 1459.86L295.925 1631C297.532 1630.68 299.248 1630.76 300.916 1631.31L300.904 1631.32ZM231.902 1391.82L419.971 1411.93C420.055 1411.56 420.152 1411.17 420.285 1410.79C420.841 1409.2 421.796 1407.84 422.992 1406.81L349.882 1310.61L230.681 1387.14C231.491 1388.55 231.926 1390.17 231.902 1391.83V1391.82ZM350.305 1308.25L398.594 1277.25C397.385 1275.04 397.071 1272.36 397.965 1269.79C398.159 1269.22 398.412 1268.69 398.702 1268.2L239.89 1160.89C239.6 1161.2 239.286 1161.47 238.947 1161.73L350.305 1308.26V1308.25ZM242.077 1157.39C241.811 1158.16 241.437 1158.87 241.001 1159.51L399.717 1266.76C400.865 1265.43 402.364 1264.44 404.02 1263.89L367.609 1114.45L242.452 1152.89C242.693 1154.35 242.585 1155.89 242.065 1157.39H242.077ZM368.914 1112.22L523.8 1064.65C523.655 1063.98 523.57 1063.29 523.582 1062.61L361.144 1046.94C361.06 1047.35 360.963 1047.76 360.818 1048.18C359.815 1051.07 357.507 1053.16 354.752 1054.07L368.914 1112.21V1112.22ZM692.473 385.381C690.467 384.508 688.896 383.023 687.905 381.23L569.491 430.231L628.595 553.394C630.323 552.793 632.233 552.651 634.118 553.099L692.473 385.393V385.381ZM520.658 17.4262L520.331 101.35L605.188 100.926C605.26 100.183 605.405 99.452 605.659 98.7092C606.058 97.5655 606.662 96.5515 607.411 95.679L525.939 15.3039C524.44 16.4948 522.603 17.2376 520.67 17.4144L520.658 17.4262ZM605.2 102.671L520.331 103.095L520.09 164.37C520.815 164.441 521.552 164.582 522.265 164.818C523.836 165.337 525.177 166.221 526.241 167.329L606.65 106.809C605.852 105.571 605.345 104.156 605.2 102.683V102.671ZM417.88 103.614C417.796 104.262 417.651 104.899 417.433 105.536C417.216 106.161 416.938 106.738 416.611 107.281L511.594 167.872C513.25 165.844 515.679 164.57 518.301 164.346L518.543 103.095L417.88 103.602V103.614ZM375.235 237.871C374.969 238.649 374.582 239.369 374.147 240.029L445.819 296.033L513.576 181.442C512.307 180.57 511.292 179.414 510.591 178.106L375.331 232.094C375.899 233.921 375.923 235.926 375.247 237.871H375.235ZM415.065 366.056L531.558 369.145C531.618 368.91 531.679 368.674 531.763 368.438C532.029 367.66 532.416 366.941 532.851 366.28L446.315 298.651L410.98 358.416C413.518 360.173 415.04 363.026 415.065 366.045V366.056ZM354.764 1036.21C355.465 1036.45 356.117 1036.75 356.721 1037.12L429.518 942.606L355.718 856.218C354.872 856.395 354.002 856.454 353.12 856.395L352.564 1035.77C353.289 1035.84 354.026 1035.99 354.752 1036.22L354.764 1036.21ZM469.601 878.585L444.853 872.913L360.637 853.601C359.755 854.473 358.703 855.169 357.567 855.64L430.629 941.168L472.538 886.755C470.302 884.692 469.154 881.65 469.601 878.585ZM358.159 1038.17C360.177 1039.96 361.338 1042.52 361.326 1045.21L489.395 1057.56L523.763 1060.88C523.848 1060.46 523.945 1060.05 524.09 1059.64C524.585 1058.22 525.395 1057.01 526.398 1056.02L430.702 943.986L358.159 1038.17ZM362.921 850.016C362.655 850.771 362.304 851.455 361.881 852.091L470.012 876.887C470.012 876.887 470.012 876.875 470.012 876.863C470.701 874.882 471.994 873.291 473.625 872.171L438.23 809.54L363.392 846.267C363.489 847.493 363.331 848.755 362.909 849.993L362.921 850.016ZM438.979 807.253L608.886 723.871C608.596 723.14 608.402 722.374 608.293 721.596L419.681 727.314L401.591 727.856C401.518 728.575 401.373 729.306 401.131 730.026C400.491 731.865 399.331 733.386 397.857 734.482L438.979 807.253ZM623.036 558.417C623.882 556.565 625.284 555.092 626.976 554.125L567.847 430.903L427.947 488.794C428.466 490.386 428.563 492.131 428.14 493.852L623.036 558.417ZM816.422 283.783C816.157 283.382 815.915 282.969 815.709 282.533L659.821 333.515L690.854 369.051C693.295 367.377 696.485 366.823 699.518 367.825C701.065 368.332 702.382 369.193 703.434 370.277L738.478 343.454L816.422 283.783ZM537.818 380.405C536.682 380.028 535.667 379.45 534.784 378.743L426.146 485.599C426.569 486.094 426.931 486.625 427.246 487.179L567.086 429.312L543.666 380.5C541.817 381.03 539.787 381.042 537.83 380.393L537.818 380.405ZM539.014 362.236L519.292 183.176C518.217 183.187 517.117 183.046 516.042 182.68C515.727 182.574 515.413 182.456 515.111 182.315L447.221 297.13L533.975 364.924C535.34 363.545 537.092 362.613 539.014 362.236ZM524.706 181.454C523.618 182.197 522.374 182.728 521.069 182.987L540.79 362.048C541.866 362.036 542.965 362.177 544.041 362.543C546.712 363.427 548.718 365.337 549.769 367.672L656.752 332.689L524.718 181.466L524.706 181.454ZM550.325 369.322C550.446 369.829 550.53 370.348 550.566 370.879L633.066 373.72L686.806 375.571C686.89 374.958 687.035 374.345 687.241 373.744C687.724 372.364 688.497 371.173 689.476 370.195L657.984 334.116L550.313 369.322H550.325ZM686.757 377.304L550.518 372.671C550.434 373.284 550.289 373.897 550.083 374.51C549.237 376.927 547.485 378.802 545.322 379.875L568.729 428.651L687.204 379.627C686.963 378.884 686.806 378.106 686.757 377.304ZM424.285 499.37C422.641 500.49 420.648 501.115 418.593 501.08L409.397 584.426L394.666 717.929C394.799 717.964 394.944 718 395.077 718.047C397.011 718.683 398.594 719.862 399.73 721.348L535.799 627.461L424.285 499.358V499.37ZM421.844 482.722C422.98 483.1 423.983 483.665 424.853 484.361L533.201 377.139C532.73 376.526 532.343 375.854 532.041 375.147L410.605 412.852L418.557 482.239C419.645 482.215 420.756 482.369 421.844 482.734V482.722ZM527.932 177.693C527.461 178.695 526.821 179.568 526.072 180.322L658.576 332.076L815.117 280.894C814.755 279.479 814.706 277.97 815.057 276.473L527.932 177.693ZM622.456 560.067L427.56 495.503C427.089 496.552 426.424 497.472 425.638 498.25L537.25 626.471L623.484 566.976C622.287 564.948 621.852 562.484 622.456 560.079V560.067ZM536.96 628.805L400.66 722.845C401.168 723.859 401.482 724.968 401.591 726.099L608.233 719.839C608.281 719.025 608.439 718.2 608.716 717.386C609.2 716.007 609.985 714.804 610.964 713.826L536.947 628.793L536.96 628.805ZM609.683 725.427L439.838 808.785L475.184 871.333C477.347 870.378 479.861 870.178 482.278 870.98C483.112 871.251 483.873 871.64 484.562 872.088L610.964 727.007C610.481 726.524 610.046 725.993 609.671 725.416L609.683 725.427ZM476.066 888.842C475.305 888.583 474.592 888.241 473.952 887.828L431.814 942.547L527.788 1054.9C528.392 1054.5 529.044 1054.16 529.721 1053.88L480.84 889.196C479.293 889.455 477.662 889.361 476.079 888.83L476.066 888.842ZM363.09 844.487L437.384 808.031L396.334 735.402C394.63 736.239 392.672 736.593 390.703 736.333L357.313 838.214C360.238 839.334 362.316 841.704 363.09 844.487ZM410.388 411.084L531.485 373.484C531.292 372.635 531.219 371.763 531.28 370.879L414.908 367.789C414.823 368.249 414.714 368.697 414.557 369.157C413.288 372.789 409.989 375.17 406.316 375.512L410.4 411.084H410.388ZM408.515 357.202C408.829 357.308 409.143 357.426 409.445 357.567L444.925 297.566L373.047 241.396C372.081 242.363 370.932 243.13 369.652 243.613L403.572 356.883C405.168 356.577 406.871 356.659 408.527 357.202H408.515ZM277.085 47.8808L362.8 225.975C364.794 225.267 367.029 225.197 369.192 225.904C371.645 226.717 373.543 228.403 374.654 230.479L509.915 176.49C509.347 174.663 509.323 172.658 509.999 170.713C510.096 170.454 510.205 170.194 510.313 169.947L280.07 44.9568C279.297 46.1594 278.27 47.1498 277.085 47.8808ZM417.929 101.869L518.543 101.362L518.869 17.4144C518.144 17.3437 517.407 17.2022 516.694 16.9664C515.316 16.5066 514.108 15.7638 513.129 14.8441L416.128 97.0114C417.167 98.4262 417.808 100.112 417.929 101.881V101.869ZM611.701 110.688C610.13 110.169 608.789 109.285 607.726 108.177L528.476 167.824L628.849 114.756L621.502 108.554C618.976 110.912 615.23 111.855 611.701 110.688ZM528.029 170.041C528.839 171.88 529.056 173.979 528.513 176.042L815.178 274.669L815.782 274.445C816.024 273.973 816.289 273.514 816.604 273.089L630.299 115.958L528.029 170.029V170.041ZM817.534 285.151L704.521 371.657C706.068 373.991 706.539 376.962 705.56 379.804C704.038 384.166 699.579 386.725 695.071 386.112L729.451 416.967L818.416 285.941C818.102 285.693 817.812 285.434 817.534 285.151ZM693.706 387.244L635.797 553.641C636.015 553.736 636.22 553.842 636.426 553.948L728.448 418.417L693.694 387.232L693.706 387.244ZM628.752 571.197C627.048 570.631 625.61 569.641 624.523 568.391L538.422 627.803L612.342 712.717C613.937 711.633 615.846 711.02 617.828 711.008L630.154 571.539C629.683 571.457 629.224 571.351 628.764 571.197H628.752ZM485.951 873.185C488.513 875.649 489.565 879.398 488.332 882.935C487.921 884.126 487.281 885.175 486.483 886.071L557.805 958.5L613.937 729.023C613.369 728.776 612.825 728.469 612.33 728.127L485.951 873.173V873.185ZM485.19 887.274C484.393 887.899 483.498 888.394 482.544 888.736L531.413 1053.4C532.452 1053.21 533.515 1053.18 534.603 1053.33L557.31 960.516L485.19 887.274ZM524.331 1066.31L369.325 1113.92L405.76 1263.48C407.21 1263.28 408.745 1263.39 410.231 1263.88C410.569 1264 410.896 1264.13 411.21 1264.27L527.606 1070.33C526.132 1069.31 525.02 1067.9 524.331 1066.31ZM404.007 1281.75C402.195 1281.14 400.684 1280.06 399.572 1278.7L351.368 1309.65L424.418 1405.77C425.24 1405.28 426.146 1404.92 427.089 1404.68L407.705 1282.23C406.485 1282.3 405.24 1282.16 404.007 1281.75ZM438.593 1416.86C437.711 1419.39 435.85 1421.3 433.566 1422.36L443.838 1449.83L470.061 1415.9C468.538 1414.54 467.499 1412.74 467.1 1410.78L439.1 1413.69C439.112 1414.74 438.967 1415.8 438.593 1416.85V1416.86ZM473.456 1417.85C472.755 1417.62 472.091 1417.31 471.486 1416.95L444.562 1451.77L477.48 1539.85C477.915 1539.73 478.362 1539.66 478.822 1539.61L475.897 1418.33C475.088 1418.27 474.266 1418.12 473.456 1417.85ZM306.765 1636.74C307.598 1638.76 307.731 1641.07 306.958 1643.29C306.16 1645.58 304.541 1647.38 302.523 1648.47L313.798 1673.19L471.74 1554.07L306.765 1636.74ZM300.892 1649.18C298.946 1649.83 296.783 1649.88 294.692 1649.18C293.895 1648.92 293.158 1648.56 292.493 1648.12L205.606 1754.03C205.776 1754.16 205.933 1754.28 206.09 1754.41L312.348 1674.27L300.904 1649.17L300.892 1649.18ZM202.803 1752.58C203.25 1752.72 203.661 1752.91 204.072 1753.11L291.091 1647.05C289.931 1645.95 289.073 1644.59 288.59 1643.11L160.508 1670.26L195.999 1752.81C198.09 1751.96 200.495 1751.82 202.803 1752.58ZM288.203 1641.4C288.034 1640.03 288.155 1638.62 288.638 1637.23C288.831 1636.67 289.073 1636.15 289.363 1635.66L92.6902 1503.56C91.7839 1504.34 90.7325 1504.94 89.5966 1505.34L159.795 1668.64L288.191 1641.41L288.203 1641.4ZM95.4938 1499.49C95.1312 1500.53 94.5995 1501.46 93.947 1502.27L290.39 1634.22C291.43 1633.02 292.735 1632.08 294.209 1631.51L242.041 1460.29L95.9892 1495.8C96.0738 1497.01 95.9288 1498.26 95.4938 1499.49ZM243.249 1458.2L419.874 1415.26C419.79 1414.74 419.753 1414.21 419.765 1413.68L231.709 1393.57C231.624 1393.97 231.527 1394.36 231.394 1394.76C230.428 1397.53 228.277 1399.57 225.679 1400.53L243.249 1458.21V1458.2ZM225.352 1382.78C227.117 1383.35 228.579 1384.39 229.678 1385.7L348.818 1309.21L237.461 1162.67C236.156 1163.35 234.706 1163.74 233.207 1163.77L223.358 1382.33C224.023 1382.4 224.688 1382.54 225.352 1382.77V1382.78ZM242.017 1151.19L367.198 1112.74L352.999 1054.47C351.549 1054.67 350.027 1054.57 348.528 1054.07C347.283 1053.66 346.184 1053.02 345.253 1052.23L240.687 1148.77C241.243 1149.52 241.678 1150.33 242.005 1151.19H242.017ZM344.927 1038.39C346.51 1036.89 348.589 1035.95 350.8 1035.76L351.356 856.112C351.126 856.053 350.897 855.994 350.667 855.923C349.579 855.558 348.601 855.016 347.755 854.355L246.875 956.672L344.939 1038.39H344.927ZM346.45 853.141C344.999 851.502 344.166 849.415 344.105 847.222L102.974 831.458C102.889 831.977 102.768 832.484 102.587 832.991C102.285 833.875 101.85 834.677 101.33 835.396L245.485 955.529L346.438 853.141H346.45ZM103.095 829.713L344.226 845.477C344.311 844.958 344.432 844.451 344.613 843.944C344.818 843.355 345.072 842.801 345.386 842.282L250.041 776.857L102.817 827.638C102.986 828.31 103.083 829.006 103.107 829.702L103.095 829.713ZM346.401 840.867C348.625 838.32 352.117 837.071 355.585 837.731L388.938 735.944C388.938 735.944 388.878 735.933 388.842 735.921C386.231 735.06 384.249 733.197 383.174 730.934L252.071 776.15L346.377 840.855L346.401 840.867ZM392.914 717.599L416.829 500.891C416.43 500.809 416.031 500.714 415.633 500.585C410.581 498.91 407.862 493.558 409.59 488.617C409.615 488.547 409.651 488.488 409.675 488.417L320.867 447.28C319.84 449.367 318.088 450.935 316.009 451.808L390.968 717.599C391.609 717.528 392.261 717.528 392.926 717.599H392.914ZM320.782 438.909L408.66 411.626L404.515 375.512C403.778 375.441 403.029 375.3 402.291 375.064C400.781 374.569 399.488 373.732 398.449 372.682L319.828 437.447C320.19 437.907 320.505 438.402 320.77 438.909H320.782ZM397.772 360.35C398.847 359.006 400.261 357.98 401.856 357.355L367.936 244.085C366.34 244.391 364.637 244.309 362.981 243.766C362.099 243.472 361.289 243.059 360.564 242.564L307.284 304.145L397.772 360.35ZM359.199 241.455C357.205 239.475 356.165 236.68 356.48 233.851L124.11 188.222C124.061 188.387 124.025 188.54 123.964 188.705C123.807 189.153 123.614 189.566 123.409 189.967L305.762 303.225L359.199 241.467V241.455ZM110.357 177.292C111.626 176.655 113.04 176.29 114.49 176.243L143.481 -107.351C143.058 -107.434 142.635 -107.528 142.212 -107.67C141.994 -107.741 141.789 -107.835 141.583 -107.917L43.5068 71.438L110.357 177.28V177.292ZM140.025 -108.731C137.245 -110.523 135.59 -113.589 135.674 -116.819L-83.8623 -141.626C-83.9469 -141.261 -84.0315 -140.895 -84.1644 -140.541C-84.817 -138.679 -86.0012 -137.134 -87.5117 -136.038L42.4313 69.7166L140.025 -108.743V-108.731ZM163.565 51.1703C163.227 52.1371 162.743 53.0096 162.151 53.7878L209.945 95.9384L264.276 45.7114C263.237 44.4144 262.572 42.8581 262.33 41.2192L164.073 48.3053C164.048 49.2485 163.891 50.2153 163.565 51.1585V51.1703ZM400.841 108.531C398.799 106.137 398.026 102.812 399.065 99.6406L297.303 52.3258L400.841 108.531ZM623.967 104.781C623.653 105.677 623.218 106.503 622.674 107.234L630.529 113.86L767.867 41.2428L624.039 98.9803C624.619 100.808 624.644 102.824 623.955 104.781H623.967ZM783.746 43.6245C782.502 43.707 781.209 43.5655 779.952 43.1411C777.849 42.4454 776.169 41.1131 775.033 39.4507L631.991 115.086L817.788 271.792C818.984 270.672 820.446 269.87 822.03 269.469L783.746 43.6245ZM961.785 228.451C960.407 227.507 959.32 226.246 958.619 224.807L830.319 271.085C833.546 273.466 835.008 277.687 833.63 281.625C832.289 285.481 828.652 287.921 824.7 288.016L810.743 486.33L961.785 228.451ZM808.845 488.193L822.936 287.886C822.416 287.803 821.897 287.686 821.377 287.521C820.857 287.355 820.386 287.131 819.915 286.896L730.781 418.158L808.833 488.205L808.845 488.193ZM807.975 489.785L729.79 419.62L637.924 554.915C638.952 555.728 639.797 556.73 640.402 557.851L807.975 489.785ZM614.759 733.15L559.267 959.997L699.482 1102.4C700.376 1101.71 701.379 1101.19 702.455 1100.83L614.747 733.162L614.759 733.15ZM696.691 1113.59C695.917 1111.89 695.651 1109.98 696.014 1108.07L542.265 1066.03C540.416 1070.74 535.074 1073.23 530.132 1071.59C529.794 1071.48 529.467 1071.35 529.141 1071.2L412.744 1265.14C413.663 1265.78 414.436 1266.58 415.065 1267.47L696.678 1113.59H696.691ZM410.605 1281.62C410.231 1281.76 409.856 1281.87 409.47 1281.97L428.853 1404.42C430.073 1404.35 431.318 1404.49 432.551 1404.91C435.934 1406.03 438.254 1408.8 438.907 1411.98L466.907 1409.07C466.894 1408.02 467.039 1406.96 467.414 1405.91C468.163 1403.75 469.638 1402.03 471.474 1400.92L410.605 1281.64V1281.62ZM473.927 1556.34C473.553 1556.05 473.202 1555.74 472.876 1555.41L314.535 1674.84L343.489 1738.32C345.435 1737.67 347.598 1737.62 349.688 1738.32C350.184 1738.48 350.655 1738.69 351.114 1738.93L473.927 1556.36V1556.34ZM336.915 1747.28C336.915 1746.26 337.072 1745.23 337.423 1744.21C338.22 1741.91 339.839 1740.12 341.858 1739.02L313.085 1675.92L207.31 1755.7C208.156 1756.76 208.76 1757.98 209.087 1759.29L336.915 1747.28ZM191.48 1756.54C192.241 1755.35 193.244 1754.36 194.404 1753.62L158.731 1670.63L70.5879 1689.32C70.6725 1690.53 70.5275 1691.79 70.0924 1693.02C69.9111 1693.54 69.6815 1694.02 69.4157 1694.49L191.468 1756.53L191.48 1756.54ZM94.527 1491.45C95.0466 1492.26 95.4333 1493.15 95.6871 1494.07L241.521 1458.61L223.963 1400.98C222.404 1401.26 220.748 1401.17 219.129 1400.63C217.546 1400.1 216.192 1399.21 215.129 1398.09L94.527 1491.44V1491.45ZM229.799 1145.44C231.745 1144.79 233.932 1144.73 236.035 1145.42C237.376 1145.87 238.56 1146.58 239.527 1147.48L344.057 1050.97C342.728 1049.31 341.99 1047.25 341.99 1045.11L184.459 1030.11C184.374 1030.54 184.278 1030.95 184.133 1031.36C183.335 1033.65 181.728 1035.43 179.722 1036.54L229.799 1145.45V1145.44ZM172.217 1019.29C174.066 1018.75 176.108 1018.74 178.078 1019.4C179.166 1019.76 180.145 1020.31 180.991 1020.97L244.252 956.802L100.17 836.729C99.4816 837.389 98.696 837.931 97.8381 838.356L172.205 1019.29H172.217ZM104.074 825.363L248.24 775.631L234.246 766.033C231.757 768.887 227.648 770.137 223.781 768.851C221.679 768.156 219.987 766.812 218.839 765.126L104.074 825.351V825.363ZM230.186 751.06C233.159 752.109 235.286 754.432 236.144 757.191L382.376 728.009C382.231 726.677 382.352 725.298 382.824 723.954C383.863 720.947 386.316 718.801 389.204 717.952L314.305 452.362C312.891 452.68 311.393 452.692 309.919 452.338L230.198 751.06H230.186ZM302.499 443.555C302.451 442.423 302.608 441.279 302.994 440.147C304.71 435.219 310.197 432.566 315.26 434.252C316.541 434.676 317.677 435.337 318.619 436.174L397.337 371.327C397.168 371.067 397.011 370.808 396.866 370.537L178.972 458.941C179.045 459.165 179.105 459.401 179.166 459.637L302.499 443.555ZM168.785 452.362C170.127 452.232 171.504 452.362 172.858 452.81C173.74 453.105 174.55 453.517 175.275 454.013L304.589 304.558L122.442 191.429C121.125 193.091 119.276 194.27 117.234 194.789L168.773 452.362H168.785ZM-19.8877 173.331C-18.3167 173.048 -16.6491 173.13 -15.0177 173.672C-14.8485 173.731 -14.6794 173.802 -14.5223 173.861L41.4525 71.4969L-89.0344 -135.118C-89.4574 -134.917 -89.9044 -134.741 -90.3636 -134.599L-19.8998 173.331H-19.8877Z" fill="url(#paint0_radial_24_580)"/>
</g>
<defs>
<radialGradient id="paint0_radial_24_580" cx="0" cy="0" r="1" gradientUnits="userSpaceOnUse" gradientTransform="translate(437 809) rotate(90) scale(962 540)">
<stop stop-color="white" stop-opacity="0.45"/>
<stop offset="0.38" stop-color="#928989" stop-opacity="0.15"/>
</radialGradient>
<clipPath id="clip0_24_580">
<rect width="926" height="1569" fill="white" transform="matrix(-1 0 0 1 926 -59)"/>
</clipPath>
</defs>
</svg>
