<svg width="821" height="1024" viewBox="0 0 821 1024" fill="none" xmlns="http://www.w3.org/2000/svg">
<g clip-path="url(#clip0_1_674)">
<path d="M977.501 -195.662C975.843 -200.544 970.539 -203.16 965.645 -201.502C961.685 -200.158 959.208 -196.409 959.302 -192.438L747.083 -167.863C747.001 -168.225 746.919 -168.587 746.791 -168.938C745.132 -173.82 739.829 -176.448 734.934 -174.778C730.051 -173.119 727.423 -167.816 729.093 -162.922C730.262 -159.488 733.229 -157.187 736.581 -156.685L728.801 -12.0623C727.925 -12.0273 727.037 -11.8754 726.161 -11.5717C722.785 -10.4271 720.496 -7.55379 719.947 -4.27168L624.929 -11.3031C624.894 -12.1557 624.742 -13.0201 624.45 -13.8727C622.791 -18.755 617.488 -21.3713 612.593 -19.7127C607.746 -18.0658 605.129 -12.8215 606.718 -7.96259L491.993 46.7119C489.867 42.764 485.159 40.8018 480.767 42.2968C479.435 42.7523 478.267 43.4882 477.321 44.3992L383.553 -36.9993C385.247 -39.3703 385.819 -42.4772 384.815 -45.444C383.156 -50.3263 377.853 -52.9543 372.958 -51.284C368.075 -49.6255 365.447 -44.3227 367.117 -39.4287C367.503 -38.2958 368.087 -37.2913 368.811 -36.427L290.042 43.1962C287.624 41.2222 284.284 40.4864 281.118 41.561C278.758 42.3669 276.924 44.0255 275.849 46.0695L130.414 -13.7559C130.975 -15.5663 130.998 -17.5636 130.332 -19.5025C128.674 -24.3848 123.37 -27.0011 118.476 -25.3426C113.593 -23.684 110.976 -18.3812 112.635 -13.4873C113.686 -10.4037 116.186 -8.23123 119.118 -7.46034L82.111 216.272C80.9078 216.19 79.6579 216.33 78.443 216.751C78.1977 216.832 77.9641 216.926 77.7304 217.031L-47.6243 170.696C-47.157 168.967 -47.1804 167.099 -47.7995 165.276C-49.4583 160.394 -54.7617 157.766 -59.6562 159.436C-64.5391 161.095 -67.1675 166.398 -65.497 171.292C-63.8382 176.174 -58.5348 178.802 -53.6403 177.132C-53.3482 177.027 -53.0562 176.921 -52.7758 176.793L94.7504 434.935L94.2598 435.378L95.2294 435.787L96.9465 438.801L96.783 436.441L258.724 503.859C258.152 505.681 258.128 507.69 258.794 509.64C260.114 513.507 263.712 515.948 267.579 515.971L279.494 654.135C279.038 654.217 278.595 654.322 278.151 654.474C273.268 656.132 270.651 661.435 272.31 666.329C273.864 670.907 278.606 673.489 283.22 672.437L197.723 1039.78C196.333 1039.59 194.873 1039.69 193.448 1040.17C188.565 1041.83 185.948 1047.13 187.607 1052.03C189.266 1056.91 194.569 1059.53 199.464 1057.87C201.45 1057.19 203.05 1055.92 204.148 1054.32L476.375 1206.75C475.452 1208.82 475.265 1211.23 476.059 1213.55C476.784 1215.69 478.209 1217.4 479.984 1218.49L421.145 1336.66C419.17 1335.89 416.927 1335.78 414.766 1336.52C409.884 1338.18 407.255 1343.48 408.926 1348.38C410.129 1351.9 413.224 1354.24 416.694 1354.65L413.867 1474.8C413.084 1474.86 412.29 1475 411.507 1475.27C406.624 1476.93 404.008 1482.23 405.666 1487.12C407.325 1492.01 412.629 1494.62 417.523 1492.96C418.002 1492.8 418.458 1492.59 418.902 1492.36L537.621 1673.22C534.631 1675.6 533.287 1679.69 534.596 1683.52C536.255 1688.41 541.558 1691.02 546.452 1689.36C549.758 1688.24 552.013 1685.46 552.62 1682.26L676.106 1694.16C676.048 1695.32 676.188 1696.5 676.585 1697.66C678.244 1702.54 683.547 1705.17 688.442 1703.5C693.325 1701.84 695.941 1696.54 694.282 1691.64C694.236 1691.51 694.189 1691.4 694.142 1691.28L812.324 1629.71C814.719 1632.65 818.761 1633.94 822.557 1632.66C827.44 1631 830.057 1625.7 828.398 1620.8C827.137 1617.09 823.761 1614.69 820.069 1614.48L797.909 1440.96C797.909 1440.96 797.98 1440.94 798.015 1440.93C802.897 1439.27 805.514 1433.97 803.855 1429.07C802.197 1424.19 796.893 1421.57 791.999 1423.23C790.468 1423.76 789.148 1424.63 788.132 1425.76L671.55 1333.28C672.987 1330.98 673.431 1328.09 672.485 1325.32C671.235 1321.64 667.929 1319.26 664.284 1319L654.764 1102.42C655.289 1102.33 655.803 1102.22 656.317 1102.04C661.2 1100.38 663.817 1095.08 662.158 1090.19C661.387 1087.92 659.834 1086.16 657.894 1085.06L706.303 977.171C708.184 977.813 710.298 977.872 712.33 977.183C717.213 975.524 719.842 970.221 718.171 965.327C717.354 962.933 715.671 961.087 713.58 960.025L785.469 780.782C787.256 781.319 789.23 781.331 791.134 780.677C796.017 779.018 798.634 773.715 796.975 768.821C795.316 763.939 790.013 761.323 785.118 762.981C783.086 763.671 781.45 765.002 780.34 766.672L667.719 706.099C668.583 704.055 668.747 701.719 667.976 699.453C666.48 695.062 662.053 692.515 657.614 693.24L580.539 397.29L579.71 397.512C582.887 396.425 585.095 393.797 585.808 390.749L705.029 406.68C704.983 407.802 705.135 408.935 705.508 410.056C707.167 414.938 712.471 417.566 717.365 415.896C722.26 414.226 724.865 408.935 723.206 404.041C722.19 401.051 719.807 398.913 716.98 398.084L766.813 142.874C768.016 142.956 769.255 142.816 770.469 142.395C774.208 141.134 776.602 137.735 776.789 134.021L886.748 132.058C886.829 132.549 886.946 133.039 887.11 133.53C888.768 138.412 894.072 141.04 898.966 139.37C903.849 137.711 906.478 132.409 904.807 127.515C903.884 124.782 901.817 122.773 899.317 121.803L967.467 -183.397C968.834 -183.222 970.259 -183.339 971.661 -183.806C976.544 -185.465 979.16 -190.768 977.501 -195.662ZM886.619 130.283L776.719 132.245C776.637 131.661 776.509 131.065 776.31 130.493C775.703 128.706 774.605 127.223 773.215 126.136L837.323 22.1136L890.941 122.609C888.301 124.291 886.689 127.199 886.631 130.295L886.619 130.283ZM706.093 402.627L495.462 315.05C496.035 313.228 496.058 311.219 495.392 309.269C495.241 308.825 495.054 308.416 494.843 308.007L582.513 252.2L707.669 400.432C707.027 401.086 706.49 401.822 706.069 402.616L706.093 402.627ZM650.255 705.387C650.453 705.971 650.71 706.52 651.002 707.034L636.482 717.242L511.595 673.091L649.834 701.357C649.694 702.677 649.811 704.044 650.266 705.375L650.255 705.387ZM699.948 968.317L547.667 983.174C547.586 982.754 547.492 982.345 547.352 981.936C547.06 981.06 546.639 980.266 546.137 979.554L641.003 898.529L702.226 962.174C700.766 963.867 699.936 966.051 699.948 968.317ZM818.305 1614.48C817.71 1614.56 817.102 1614.69 816.506 1614.9C813.422 1615.95 811.25 1618.45 810.467 1621.39L725.659 1602.95L793.494 1441.24C794.37 1441.38 795.269 1441.41 796.169 1441.28L809.427 1545.03L818.294 1614.47L818.305 1614.48ZM205.153 1045.62C204.756 1044.58 204.195 1043.64 203.506 1042.85L338.276 902.582L359.968 993.441C355.518 994.948 352.959 999.48 353.789 1003.96L205.164 1045.62H205.153ZM485.031 60.3659L397.291 109.177L476.725 57.2473C478.77 59.5834 481.889 60.7981 485.043 60.3659H485.031ZM618.598 -2.0291C619.813 -2.4379 620.887 -3.08031 621.787 -3.87456L674.202 45.7892L530.881 175.345C530.39 174.901 529.853 174.504 529.292 174.177L612.126 -2.2043C614.124 -1.39838 616.402 -1.28157 618.609 -2.0291H618.598ZM732.539 5.96008C737.189 4.16135 739.642 -0.989578 738.018 -5.75505C736.85 -9.189 733.883 -11.49 730.53 -11.9922L738.205 -154.676L765.972 123.684L732.539 5.96008ZM722.844 4.13799C724.97 6.08856 727.937 6.98793 730.881 6.43896L764.453 124.641C763.39 125.004 762.444 125.541 761.615 126.207L676.748 45.8009L722.844 4.1263V4.13799ZM760.365 127.421C758.753 129.302 757.924 131.79 758.157 134.336L533.498 179.538C533.463 179.433 533.439 179.316 533.404 179.211C533.077 178.253 532.61 177.389 532.037 176.618L675.463 46.9689L760.365 127.421ZM567.678 391.052L481.702 431.863C480.347 429.573 478.08 428.02 475.557 427.483L483.209 359.096L567.725 385.983C567.257 387.595 567.211 389.336 567.69 391.052H567.678ZM423.329 1481.05C422.488 1478.55 420.677 1476.66 418.481 1475.62L449.928 1389.41L584.277 1567.58C583.658 1568.14 583.133 1568.78 582.689 1569.47L423.154 1487.53C423.96 1485.53 424.088 1483.25 423.341 1481.05H423.329ZM466.317 1359.03C466.609 1358.93 466.878 1358.82 467.158 1358.7L583.284 1563.39L450.64 1387.48L460.944 1359.21C462.661 1359.67 464.518 1359.65 466.329 1359.03H466.317ZM587.56 1565.63C587.268 1565.72 586.999 1565.84 586.719 1565.95L468.642 1357.82C470.277 1356.69 471.469 1355.08 472.111 1353.25L642.779 1395.77L592.373 1565.31C590.819 1564.99 589.16 1565.08 587.548 1565.61L587.56 1565.63ZM654.261 1328.37L472.462 1348.29C472.38 1347.92 472.286 1347.53 472.158 1347.16C471.62 1345.58 470.698 1344.24 469.541 1343.21L540.215 1247.92L655.441 1323.73C654.659 1325.13 654.238 1326.73 654.261 1328.38V1328.37ZM539.806 1245.58L493.126 1214.87C494.294 1212.68 494.598 1210.03 493.734 1207.48C493.547 1206.92 493.301 1206.39 493.021 1205.9L646.54 1099.6C646.82 1099.91 647.124 1100.17 647.451 1100.43L539.806 1245.59V1245.58ZM644.426 1096.13C644.683 1096.89 645.045 1097.59 645.465 1098.23L492.04 1204.48C490.93 1203.16 489.482 1202.18 487.881 1201.64L523.078 1053.59L644.063 1091.67C643.83 1093.12 643.935 1094.65 644.437 1096.13H644.426ZM521.816 1051.39L372.094 1004.26C372.234 1003.59 372.316 1002.91 372.304 1002.24L529.327 986.714C529.409 987.122 529.503 987.531 529.643 987.94C530.612 990.802 532.843 992.881 535.507 993.78L521.816 1051.37V1051.39ZM209.043 331.344C210.982 330.48 212.5 329.008 213.458 327.232L327.926 375.775L270.791 497.785C269.121 497.189 267.275 497.049 265.453 497.493L209.043 331.356V331.344ZM375.131 -33.1682L375.446 49.9706L293.418 49.5502C293.348 48.8143 293.208 48.0901 292.963 47.3543C292.577 46.2213 291.993 45.2168 291.269 44.3525L370.026 -35.2706C371.475 -34.0909 373.25 -33.3551 375.119 -33.1799L375.131 -33.1682ZM293.407 51.2788L375.446 51.6993L375.68 112.401C374.979 112.471 374.266 112.611 373.577 112.845C372.059 113.358 370.762 114.234 369.734 115.332L292.005 55.3785C292.776 54.1521 293.267 52.7505 293.407 51.2905V51.2788ZM474.482 52.2132C474.564 52.8556 474.704 53.4863 474.915 54.1171C475.125 54.7361 475.394 55.3084 475.709 55.8457L383.892 115.87C382.292 113.861 379.944 112.599 377.409 112.377L377.175 51.6993L474.482 52.2015V52.2132ZM515.707 185.214C515.964 185.985 516.337 186.698 516.758 187.352L447.475 242.832L381.976 129.313C383.203 128.449 384.184 127.304 384.862 126.008L515.613 179.491C515.064 181.302 515.041 183.287 515.695 185.214H515.707ZM477.204 312.2L364.594 315.26C364.536 315.027 364.477 314.793 364.396 314.56C364.139 313.789 363.765 313.076 363.344 312.422L446.996 245.425L481.153 304.632C478.699 306.372 477.228 309.198 477.204 312.189V312.2ZM535.495 976.085C534.818 976.318 534.187 976.622 533.603 976.984L463.233 883.356L534.572 797.776C535.39 797.952 536.231 798.01 537.084 797.952L537.621 975.652C536.92 975.723 536.208 975.863 535.507 976.096L535.495 976.085ZM424.485 819.934L448.409 814.315L529.818 795.183C530.671 796.048 531.687 796.737 532.785 797.204L462.158 881.932L421.647 828.028C423.808 825.984 424.918 822.97 424.485 819.934ZM532.213 978.024C530.262 979.799 529.14 982.333 529.152 984.997L405.351 997.237L372.129 1000.52C372.047 1000.11 371.953 999.702 371.813 999.293C371.334 997.891 370.552 996.688 369.582 995.707L462.088 884.723L532.213 978.024ZM527.61 791.633C527.867 792.38 528.206 793.058 528.615 793.688L424.088 818.252C424.088 818.252 424.088 818.24 424.088 818.228C423.422 816.266 422.172 814.689 420.595 813.58L454.811 751.535L527.155 787.918C527.061 789.133 527.213 790.383 527.622 791.609L527.61 791.633ZM454.086 749.269L289.844 666.667C290.124 665.943 290.311 665.184 290.416 664.413L472.742 670.078L490.229 670.615C490.299 671.328 490.439 672.052 490.673 672.764C491.292 674.587 492.414 676.093 493.839 677.18L454.086 749.269ZM276.165 502.761C275.347 500.927 273.992 499.467 272.357 498.509L329.514 376.441L464.752 433.79C464.249 435.367 464.156 437.095 464.565 438.801L276.165 502.761ZM89.2251 230.697C89.482 230.299 89.7157 229.891 89.9143 229.458L240.606 279.963L210.608 315.167C208.248 313.508 205.164 312.959 202.232 313.952C200.737 314.455 199.464 315.307 198.448 316.382L164.571 289.81L89.2251 230.697ZM358.543 326.415C359.641 326.041 360.622 325.469 361.475 324.768L466.492 430.625C466.083 431.115 465.733 431.641 465.429 432.19L330.25 374.864L352.889 326.508C354.676 327.034 356.639 327.046 358.531 326.403L358.543 326.415ZM357.387 308.416L376.451 131.03C377.491 131.042 378.554 130.902 379.593 130.54C379.897 130.435 380.201 130.318 380.493 130.178L446.12 243.918L362.258 311.079C360.938 309.712 359.244 308.79 357.387 308.416ZM371.218 129.325C372.269 130.061 373.472 130.587 374.734 130.844L355.669 308.229C354.63 308.217 353.567 308.357 352.527 308.72C349.945 309.596 348.006 311.488 346.99 313.8L243.573 279.146L371.206 129.337L371.218 129.325ZM346.453 315.436C346.336 315.938 346.254 316.452 346.219 316.977L266.469 319.792L214.521 321.626C214.44 321.019 214.299 320.411 214.101 319.816C213.634 318.449 212.886 317.269 211.94 316.3L242.382 280.559L346.464 315.436H346.453ZM214.568 323.343L346.266 318.753C346.348 319.36 346.488 319.968 346.686 320.575C347.504 322.969 349.198 324.826 351.289 325.889L328.662 374.21L214.136 325.644C214.369 324.908 214.521 324.137 214.568 323.343ZM468.291 444.267C469.88 445.377 471.807 445.996 473.793 445.961L482.683 528.527L496.923 660.781C496.794 660.816 496.654 660.851 496.526 660.898C494.656 661.528 493.126 662.696 492.028 664.168L360.494 571.159L468.291 444.255V444.267ZM470.651 427.775C469.553 428.148 468.583 428.709 467.742 429.398L363.005 323.18C363.461 322.572 363.835 321.906 364.127 321.206L481.515 358.558L473.828 427.296C472.777 427.272 471.702 427.424 470.651 427.786V427.775ZM368.099 125.599C368.554 126.592 369.173 127.456 369.898 128.204L241.809 278.538L90.4867 227.835C90.8371 226.433 90.8838 224.938 90.5451 223.455L368.099 125.599ZM276.726 504.396L465.125 440.436C465.581 441.475 466.224 442.386 466.983 443.157L359.092 570.178L275.733 511.241C276.889 509.232 277.31 506.79 276.726 504.408V504.396ZM359.372 572.491L491.129 665.651C490.638 666.656 490.334 667.754 490.229 668.875L290.475 662.673C290.428 661.867 290.276 661.049 290.007 660.243C289.54 658.877 288.781 657.685 287.835 656.716L359.384 572.479L359.372 572.491ZM289.073 668.209L453.257 750.787L419.089 812.75C416.998 811.804 414.568 811.606 412.231 812.4C411.425 812.669 410.69 813.054 410.024 813.498L287.835 669.774C288.302 669.296 288.723 668.77 289.085 668.198L289.073 668.209ZM418.236 830.095C418.972 829.838 419.661 829.5 420.28 829.091L461.014 883.298L368.239 994.598C367.655 994.2 367.024 993.862 366.37 993.593L413.622 830.446C415.117 830.703 416.694 830.609 418.224 830.084L418.236 830.095ZM527.447 786.155L455.628 750.04L495.311 678.091C496.958 678.92 498.85 679.27 500.754 679.013L533.03 779.941C530.203 781.051 528.194 783.398 527.447 786.155ZM481.725 356.806L364.664 319.559C364.851 318.718 364.921 317.853 364.863 316.977L477.356 313.917C477.438 314.373 477.543 314.817 477.695 315.272C478.921 318.87 482.11 321.229 485.662 321.568L481.713 356.806H481.725ZM483.536 303.428C483.232 303.534 482.928 303.65 482.636 303.791L448.339 244.351L517.821 188.707C518.755 189.664 519.865 190.424 521.104 190.903L488.313 303.113C486.771 302.809 485.124 302.891 483.524 303.428H483.536ZM610.584 -2.99855L527.727 173.429C525.799 172.728 523.638 172.658 521.547 173.359C519.176 174.165 517.342 175.835 516.267 177.891L385.516 124.408C386.065 122.597 386.088 120.612 385.434 118.685C385.341 118.428 385.235 118.171 385.13 117.925L607.699 -5.89522C608.446 -4.70384 609.439 -3.72272 610.584 -2.99855ZM474.436 50.4846L377.175 49.9823L376.86 -33.1799C377.561 -33.25 378.273 -33.3901 378.962 -33.6237C380.294 -34.0793 381.462 -34.8151 382.408 -35.7262L476.176 45.6724C475.172 47.074 474.553 48.7442 474.436 50.4962V50.4846ZM287.122 59.2213C288.641 58.7073 289.937 57.8313 290.965 56.7334L367.573 115.823L270.546 63.2509L277.648 57.1072C280.09 59.4432 283.711 60.3776 287.122 59.2213ZM368.005 118.019C367.223 119.841 367.012 121.92 367.538 123.964L90.4283 221.668L89.8442 221.446C89.6105 220.979 89.3536 220.523 89.0498 220.103L269.144 64.4423L368.005 118.007V118.019ZM88.1503 232.051L197.396 317.748C195.901 320.061 195.445 323.004 196.392 325.819C197.863 330.141 202.174 332.675 206.531 332.068L173.297 362.635L87.2976 232.834C87.6013 232.589 87.8817 232.332 88.1503 232.051ZM207.851 333.189L263.829 498.03C263.619 498.124 263.42 498.229 263.222 498.334L174.267 364.071L207.863 333.178L207.851 333.189ZM270.639 515.422C272.287 514.861 273.677 513.88 274.728 512.642L357.959 571.498L286.503 655.618C284.961 654.544 283.115 653.936 281.2 653.924L269.284 515.761C269.74 515.679 270.184 515.574 270.628 515.422H270.639ZM408.68 814.584C406.204 817.025 405.188 820.74 406.379 824.244C406.776 825.423 407.395 826.463 408.166 827.35L339.222 899.101L284.961 671.772C285.51 671.526 286.036 671.223 286.515 670.884L408.68 814.572V814.584ZM409.416 828.542C410.187 829.161 411.052 829.651 411.974 829.99L364.734 993.114C363.73 992.927 362.702 992.892 361.65 993.044L339.701 901.099L409.416 828.542ZM371.58 1005.9L521.419 1053.07L486.199 1201.23C484.797 1201.03 483.314 1201.14 481.877 1201.63C481.55 1201.74 481.234 1201.87 480.931 1202.01L368.414 1009.89C369.839 1008.87 370.914 1007.48 371.58 1005.9ZM487.893 1219.32C489.645 1218.73 491.105 1217.65 492.18 1216.31L538.778 1246.97L468.163 1342.19C467.368 1341.71 466.492 1341.34 465.581 1341.11L484.318 1219.8C485.498 1219.87 486.701 1219.73 487.893 1219.32ZM454.46 1353.18C455.313 1355.68 457.112 1357.57 459.32 1358.62L449.39 1385.83L424.042 1352.22C425.513 1350.88 426.518 1349.09 426.904 1347.15L453.97 1350.03C453.958 1351.07 454.098 1352.12 454.46 1353.16V1353.18ZM420.759 1354.16C421.437 1353.92 422.079 1353.62 422.663 1353.26L448.69 1387.76L416.869 1475.01C416.449 1474.89 416.016 1474.82 415.572 1474.78L418.399 1354.62C419.182 1354.57 419.976 1354.43 420.759 1354.16ZM581.894 1571C581.088 1573 580.96 1575.28 581.707 1577.48C582.478 1579.76 584.044 1581.53 585.995 1582.62L575.096 1607.1L422.418 1489.1L581.894 1571ZM587.572 1583.32C589.452 1583.96 591.543 1584.01 593.564 1583.32C594.335 1583.06 595.048 1582.7 595.69 1582.27L679.68 1687.19C679.517 1687.32 679.365 1687.44 679.213 1687.57L576.497 1608.18L587.56 1583.31L587.572 1583.32ZM682.391 1685.75C681.958 1685.9 681.561 1686.08 681.164 1686.28L597.045 1581.21C598.167 1580.12 598.996 1578.78 599.463 1577.31L723.276 1604.2L688.967 1685.98C686.946 1685.14 684.622 1685 682.391 1685.75ZM599.837 1575.61C600.001 1574.26 599.884 1572.86 599.417 1571.48C599.23 1570.93 598.996 1570.41 598.716 1569.92L788.833 1439.06C789.709 1439.83 790.725 1440.43 791.823 1440.82L723.965 1602.59L599.849 1575.62L599.837 1575.61ZM786.123 1435.03C786.473 1436.06 786.987 1436.98 787.618 1437.79L597.723 1568.5C596.718 1567.31 595.457 1566.38 594.031 1565.81L644.461 1396.19L785.644 1431.37C785.562 1432.58 785.702 1433.82 786.123 1435.03ZM643.292 1394.13L472.555 1351.59C472.637 1351.07 472.672 1350.55 472.66 1350.02L654.448 1330.1C654.53 1330.49 654.624 1330.88 654.752 1331.28C655.687 1334.02 657.766 1336.04 660.277 1337L643.292 1394.14V1394.13ZM660.593 1319.41C658.887 1319.98 657.474 1321.01 656.411 1322.31L541.243 1246.53L648.888 1101.37C650.15 1102.03 651.551 1102.42 653 1102.45L662.52 1318.97C661.878 1319.04 661.235 1319.18 660.593 1319.4V1319.41ZM644.484 1089.99L523.475 1051.9L537.201 994.177C538.602 994.376 540.074 994.271 541.523 993.78C542.726 993.371 543.789 992.74 544.689 991.958L645.769 1087.59C645.232 1088.33 644.811 1089.14 644.496 1089.99H644.484ZM545.004 978.245C543.474 976.762 541.464 975.828 539.327 975.641L538.789 797.671C539.011 797.613 539.233 797.555 539.455 797.484C540.507 797.122 541.453 796.585 542.27 795.931L639.788 897.291L544.992 978.245H545.004ZM543.532 794.728C544.934 793.104 545.74 791.037 545.798 788.865L778.892 773.248C778.974 773.762 779.09 774.264 779.266 774.767C779.558 775.643 779.978 776.437 780.481 777.149L641.131 896.158L543.544 794.728H543.532ZM778.775 771.52L545.682 787.136C545.6 786.622 545.483 786.12 545.308 785.617C545.109 785.034 544.864 784.484 544.56 783.971L636.727 719.158L779.044 769.464C778.88 770.13 778.787 770.819 778.763 771.508L778.775 771.52ZM543.579 782.569C541.429 780.046 538.053 778.808 534.701 779.462L502.46 678.628C502.46 678.628 502.518 678.616 502.553 678.605C505.076 677.752 506.992 675.906 508.032 673.664L634.765 718.457L543.602 782.557L543.579 782.569ZM498.617 660.454L475.499 445.774C475.884 445.692 476.27 445.599 476.655 445.47C481.538 443.811 484.166 438.509 482.496 433.615C482.473 433.545 482.438 433.486 482.414 433.416L568.262 392.664C569.255 394.732 570.949 396.285 572.958 397.149L500.497 660.454C499.878 660.384 499.247 660.384 498.605 660.454H498.617ZM568.344 384.371L483.395 357.344L487.402 321.568C488.115 321.498 488.839 321.357 489.552 321.124C491.012 320.633 492.262 319.804 493.266 318.764L569.267 382.923C568.916 383.379 568.612 383.869 568.355 384.371H568.344ZM493.921 306.547C492.881 305.216 491.514 304.199 489.972 303.58L522.762 191.37C524.304 191.673 525.951 191.592 527.552 191.054C528.404 190.762 529.187 190.354 529.888 189.863L581.392 250.868L493.921 306.547ZM531.208 188.765C533.135 186.803 534.14 184.035 533.836 181.231L758.461 136.03C758.508 136.193 758.543 136.345 758.601 136.508C758.753 136.952 758.94 137.361 759.138 137.758L582.864 249.957L531.208 188.777V188.765ZM771.754 125.202C770.528 124.571 769.161 124.209 767.759 124.163L739.735 -156.779C740.144 -156.86 740.553 -156.954 740.962 -157.094C741.172 -157.164 741.371 -157.257 741.569 -157.339L836.377 20.3383L771.754 125.19V125.202ZM743.076 -158.145C745.763 -159.921 747.363 -162.957 747.282 -166.158L959.5 -190.733C959.582 -190.37 959.664 -190.008 959.792 -189.658C960.423 -187.813 961.568 -186.282 963.028 -185.196L837.416 18.633L743.076 -158.157V-158.145ZM720.321 0.260193C720.648 1.21796 721.115 2.08228 721.687 2.85316L675.487 44.6095L622.967 -5.14769C623.971 -6.4325 624.614 -7.97427 624.847 -9.59781L719.83 -2.57806C719.853 -1.64366 720.005 -0.685883 720.321 0.24852V0.260193ZM490.953 57.0838C492.928 54.7128 493.675 51.419 492.671 48.277L591.041 1.40483L490.953 57.0838ZM275.265 53.3695C275.569 54.2572 275.99 55.0749 276.515 55.799L268.922 62.3632L136.162 -9.57443L275.195 47.6229C274.635 49.4333 274.611 51.4306 275.277 53.3695H275.265ZM120.812 -7.21506C122.015 -7.1333 123.265 -7.27345 124.48 -7.69394C126.513 -8.38306 128.136 -9.70293 129.234 -11.3498L267.509 63.5779L87.905 218.818C86.7486 217.708 85.3351 216.914 83.8048 216.517L120.812 -7.21506ZM-51.2923 175.882C-49.9606 174.948 -48.9092 173.698 -48.2317 172.273L75.7913 218.117C72.6723 220.477 71.2589 224.658 72.5905 228.559C73.8872 232.379 77.4033 234.796 81.2232 234.89L94.7154 431.349L-51.2923 175.882ZM96.5494 433.194L82.9287 234.761C83.431 234.68 83.9333 234.563 84.4356 234.399C84.9379 234.236 85.3935 234.014 85.8491 233.78L172.012 363.815L96.5611 433.206L96.5494 433.194ZM97.3905 434.771L172.97 365.263L261.773 499.292C260.78 500.098 259.962 501.091 259.378 502.2L97.3905 434.771ZM284.167 675.86L337.808 900.585L202.267 1041.66C201.403 1040.97 200.433 1040.45 199.394 1040.1L284.178 675.871L284.167 675.86ZM204.966 1052.74C205.713 1051.06 205.97 1049.17 205.62 1047.27L354.244 1005.62C356.032 1010.3 361.195 1012.76 365.973 1011.14C366.3 1011.02 366.615 1010.89 366.93 1010.75L479.447 1202.88C478.559 1203.51 477.812 1204.3 477.204 1205.18L204.977 1052.74H204.966ZM481.515 1219.19C481.877 1219.33 482.239 1219.45 482.613 1219.54L463.876 1340.85C462.696 1340.78 461.493 1340.92 460.301 1341.33C457.03 1342.44 454.787 1345.19 454.157 1348.34L427.09 1345.46C427.102 1344.42 426.962 1343.36 426.6 1342.33C425.876 1340.19 424.45 1338.48 422.675 1337.38L481.515 1219.22V1219.19ZM420.303 1491.35C420.666 1491.06 421.004 1490.76 421.32 1490.43L574.383 1608.74L546.394 1671.62C544.513 1670.98 542.422 1670.93 540.401 1671.62C539.922 1671.79 539.467 1672 539.023 1672.23L420.303 1491.36V1491.35ZM552.749 1680.5C552.749 1679.49 552.597 1678.47 552.258 1677.46C551.487 1675.18 549.922 1673.41 547.971 1672.32L575.785 1609.81L678.033 1688.84C677.216 1689.89 676.632 1691.1 676.316 1692.4L552.749 1680.5ZM693.336 1689.68C692.6 1688.5 691.631 1687.52 690.509 1686.78L724.993 1604.57L810.198 1623.08C810.117 1624.28 810.257 1625.53 810.677 1626.75C810.853 1627.26 811.075 1627.74 811.332 1628.21L693.348 1689.67L693.336 1689.68ZM787.057 1427.06C786.555 1427.87 786.181 1428.75 785.936 1429.66L644.963 1394.54L661.936 1337.44C663.443 1337.72 665.044 1337.63 666.609 1337.09C668.139 1336.57 669.447 1335.69 670.475 1334.58L787.057 1427.05V1427.06ZM656.294 1084.29C654.413 1083.65 652.299 1083.59 650.266 1084.28C648.97 1084.72 647.825 1085.42 646.89 1086.31L545.845 990.708C547.13 989.061 547.843 987.017 547.843 984.903L700.123 970.046C700.205 970.467 700.298 970.875 700.439 971.284C701.21 973.55 702.763 975.314 704.702 976.412L656.294 1084.3V1084.29ZM711.957 959.324C710.169 958.786 708.195 958.775 706.291 959.429C705.24 959.791 704.293 960.328 703.476 960.982L642.323 897.419L781.602 778.469C782.268 779.123 783.027 779.661 783.857 780.081L711.968 959.324H711.957ZM777.829 767.21L638.468 717.943L651.995 708.435C654.402 711.262 658.373 712.5 662.111 711.227C664.144 710.538 665.779 709.206 666.889 707.536L777.829 767.198V767.21ZM655.92 693.602C653.047 694.641 650.991 696.942 650.161 699.675L508.803 670.767C508.943 669.447 508.826 668.081 508.371 666.749C507.366 663.771 504.995 661.645 502.203 660.804L574.605 397.698C575.972 398.014 577.42 398.026 578.845 397.675L655.909 693.602H655.92ZM586.018 388.973C586.065 387.852 585.913 386.719 585.539 385.598C583.88 380.716 578.577 378.088 573.682 379.758C572.444 380.178 571.346 380.832 570.435 381.662L494.341 317.421C494.505 317.164 494.656 316.907 494.797 316.639L705.427 404.216C705.357 404.438 705.298 404.672 705.24 404.905L586.018 388.973ZM715.274 397.698C713.978 397.57 712.646 397.698 711.338 398.142C710.485 398.434 709.702 398.843 709.001 399.334L583.997 251.277L760.073 139.207C761.346 140.853 763.133 142.021 765.108 142.535L715.286 397.698H715.274ZM897.658 121.278C896.14 120.997 894.528 121.079 892.951 121.616C892.787 121.675 892.623 121.745 892.472 121.803L838.363 20.3967L964.5 -184.285C964.909 -184.087 965.341 -183.911 965.785 -183.771L897.67 121.278H897.658Z" fill="url(#paint0_radial_1_674)"/>
</g>
<defs>
<radialGradient id="paint0_radial_1_674" cx="0" cy="0" r="1" gradientUnits="userSpaceOnUse" gradientTransform="translate(456 751) rotate(90) scale(953 522)">
<stop stop-color="white" stop-opacity="0.45"/>
<stop offset="0.38" stop-color="#928989" stop-opacity="0.15"/>
</radialGradient>
<clipPath id="clip0_1_674">
<rect width="880" height="1469.8" fill="white" transform="translate(0 -10)"/>
</clipPath>
</defs>
</svg>
