<svg width="852" height="1024" viewBox="0 0 852 1024" fill="none" xmlns="http://www.w3.org/2000/svg">
<g clip-path="url(#clip0_1_1035)">
<path d="M-125.501 -226.508C-123.843 -232.202 -118.539 -235.253 -113.645 -233.319C-109.685 -231.752 -107.208 -227.38 -107.302 -222.749L104.917 -194.091C104.999 -194.513 105.081 -194.936 105.209 -195.344C106.868 -201.038 112.171 -204.102 117.066 -202.155C121.949 -200.22 124.577 -194.037 122.907 -188.33C121.738 -184.325 118.771 -181.642 115.419 -181.056L123.199 -12.405C124.075 -12.3642 124.963 -12.1871 125.839 -11.8329C129.215 -10.4981 131.504 -7.14743 132.053 -3.32002L227.071 -11.5197C227.106 -12.514 227.258 -13.5219 227.55 -14.5162C229.209 -20.2096 234.512 -23.2607 239.407 -21.3265C244.254 -19.406 246.871 -13.2903 245.282 -7.62415L360.007 56.1342C362.133 51.5304 366.841 49.2422 371.233 50.9856C372.565 51.5168 373.733 52.3749 374.679 53.4373L468.447 -41.4851C466.753 -44.2501 466.181 -47.8732 467.185 -51.3329C468.844 -57.0263 474.147 -60.091 479.042 -58.1432C483.925 -56.2091 486.553 -50.0253 484.883 -44.3183C484.497 -42.997 483.913 -41.8257 483.189 -40.8177L561.958 52.0344C564.376 49.7325 567.716 48.8744 570.882 50.1275C573.242 51.0673 575.076 53.0015 576.151 55.3851L721.586 -14.38C721.025 -16.4912 721.002 -18.8203 721.668 -21.0814C723.326 -26.7748 728.63 -29.8259 733.524 -27.8917C738.407 -25.9576 741.024 -19.7738 739.365 -14.0667C738.314 -10.4709 735.814 -7.93742 732.882 -7.03845L769.889 253.866C771.092 253.77 772.342 253.934 773.557 254.424C773.802 254.519 774.036 254.628 774.27 254.751L899.624 200.718C899.157 198.702 899.18 196.523 899.799 194.398C901.458 188.704 906.762 185.64 911.656 187.587C916.539 189.521 919.167 195.705 917.497 201.412C915.838 207.106 910.535 210.17 905.64 208.223C905.348 208.1 905.056 207.977 904.776 207.828L757.25 508.858L757.74 509.376L756.771 509.852L755.053 513.367L755.217 510.615L593.276 589.234C593.848 591.359 593.872 593.701 593.206 595.976C591.886 600.484 588.288 603.331 584.421 603.358L572.506 764.477C572.962 764.573 573.405 764.695 573.849 764.872C578.732 766.807 581.349 772.99 579.69 778.697C578.136 784.037 573.394 787.047 568.78 785.821L654.277 1214.19C655.667 1213.97 657.127 1214.1 658.552 1214.65C663.435 1216.59 666.052 1222.77 664.393 1228.48C662.734 1234.17 657.431 1237.22 652.536 1235.29C650.55 1234.5 648.95 1233.01 647.852 1231.15L375.625 1408.91C376.548 1411.32 376.735 1414.13 375.941 1416.84C375.216 1419.33 373.791 1421.32 372.016 1422.6L430.855 1560.4C432.83 1559.5 435.073 1559.38 437.234 1560.24C442.116 1562.17 444.745 1568.36 443.074 1574.06C441.871 1578.18 438.776 1580.9 435.306 1581.38L438.133 1721.49C438.916 1721.56 439.71 1721.72 440.493 1722.04C445.376 1723.97 447.992 1730.16 446.334 1735.86C444.675 1741.56 439.371 1744.61 434.477 1742.67C433.998 1742.48 433.542 1742.24 433.098 1741.96L314.379 1952.88C317.369 1955.66 318.713 1960.43 317.404 1964.89C315.745 1970.59 310.442 1973.64 305.548 1971.7C302.242 1970.4 299.987 1967.16 299.38 1963.42L175.894 1977.3C175.952 1978.65 175.812 1980.03 175.415 1981.38C173.756 1987.07 168.453 1990.13 163.558 1988.19C158.675 1986.25 156.059 1980.07 157.718 1974.36C157.764 1974.21 157.811 1974.07 157.858 1973.94L39.6755 1902.14C37.2808 1905.56 33.239 1907.07 29.4425 1905.58C24.5596 1903.64 21.943 1897.46 23.6017 1891.75C24.8633 1887.42 28.2393 1884.63 31.9307 1884.38L54.0906 1682.03C54.0906 1682.03 54.0204 1682.01 53.9854 1681.99C49.1025 1680.06 46.4859 1673.88 48.1447 1668.17C49.8034 1662.47 55.1068 1659.42 60.0014 1661.36C61.5317 1661.97 62.8517 1662.99 63.868 1664.3L180.45 1556.46C179.013 1553.78 178.569 1550.4 179.515 1547.18C180.765 1542.89 184.071 1540.11 187.716 1539.81L197.236 1287.24C196.711 1287.14 196.197 1287.01 195.683 1286.8C190.8 1284.87 188.183 1278.68 189.842 1272.98C190.613 1270.34 192.166 1268.28 194.106 1267L145.697 1141.18C143.816 1141.93 141.702 1142 139.67 1141.2C134.787 1139.26 132.158 1133.08 133.829 1127.37C134.646 1124.58 136.329 1122.43 138.42 1121.19L66.5314 912.166C64.7441 912.793 62.77 912.807 60.8658 912.044C55.983 910.11 53.3663 903.926 55.0251 898.219C56.6838 892.525 61.9873 889.474 66.8819 891.408C68.9145 892.212 70.5499 893.765 71.6596 895.713L184.281 825.076C183.417 822.692 183.253 819.968 184.024 817.325C185.52 812.204 189.947 809.235 194.386 810.079L271.461 464.959L272.29 465.218C269.113 463.951 266.905 460.886 266.192 457.331L146.971 475.91C147.017 477.217 146.865 478.539 146.492 479.846C144.833 485.54 139.529 488.604 134.635 486.656C129.74 484.709 127.135 478.539 128.794 472.831C129.81 469.345 132.193 466.852 135.02 465.885L85.1868 168.273C83.9836 168.369 82.7454 168.205 81.5305 167.715C77.7924 166.244 75.3977 162.28 75.2108 157.949L-34.7476 155.66C-34.8293 156.233 -34.9462 156.805 -35.1097 157.377C-36.7684 163.07 -42.0719 166.135 -46.9665 164.187C-51.8494 162.253 -54.4777 156.069 -52.8073 150.362C-51.8844 147.175 -49.8168 144.832 -47.317 143.702L-115.467 -212.207C-116.834 -212.002 -118.259 -212.139 -119.661 -212.683C-124.544 -214.618 -127.16 -220.801 -125.501 -226.508ZM-34.6191 153.59L75.2809 155.878C75.3627 155.197 75.4911 154.503 75.6898 153.835C76.2972 151.751 77.3953 150.022 78.7854 148.755L14.6771 27.4491L-38.9413 144.641C-36.3013 146.603 -34.6892 149.994 -34.6308 153.604L-34.6191 153.59ZM145.907 471.183L356.538 369.056C355.965 366.931 355.942 364.588 356.608 362.313C356.759 361.796 356.946 361.319 357.157 360.842L269.487 295.763L144.331 468.623C144.973 469.385 145.51 470.244 145.931 471.17L145.907 471.183ZM201.745 824.245C201.547 824.926 201.29 825.566 200.998 826.165L215.518 838.07L340.405 786.584L202.166 819.546C202.306 821.085 202.189 822.678 201.734 824.231L201.745 824.245ZM152.052 1130.86L304.333 1148.19C304.414 1147.69 304.508 1147.22 304.648 1146.74C304.94 1145.72 305.361 1144.79 305.863 1143.96L210.997 1049.48L149.774 1123.7C151.234 1125.67 152.064 1128.22 152.052 1130.86ZM33.6946 1884.38C34.2903 1884.48 34.8978 1884.63 35.4936 1884.87C38.5775 1886.1 40.7502 1889.01 41.5329 1892.43L126.341 1870.94L58.5062 1682.36C57.6301 1682.52 56.7306 1682.55 55.8311 1682.4L42.5726 1803.39L33.7062 1884.37L33.6946 1884.38ZM646.847 1221C647.244 1219.79 647.805 1218.7 648.494 1217.77L513.724 1054.2L492.032 1160.16C496.482 1161.92 499.041 1167.2 498.211 1172.43L646.836 1221H646.847ZM366.969 72.0568L454.709 128.978L375.275 68.4201C373.23 71.1442 370.111 72.5607 366.957 72.0568H366.969ZM233.402 -0.704849C232.187 -1.18156 231.113 -1.93071 230.213 -2.85692L177.798 55.0582L321.119 206.139C321.61 205.621 322.147 205.158 322.708 204.777L239.874 -0.909149C237.876 0.0306702 235.598 0.166885 233.391 -0.704849H233.402ZM119.461 8.61169C114.811 6.51411 112.358 0.507385 113.982 -5.04984C115.15 -9.05432 118.117 -11.7376 121.47 -12.3233L113.795 -178.713L86.028 145.894L119.461 8.61169ZM129.156 6.48688C127.03 8.76152 124.063 9.81032 121.119 9.17015L87.5465 147.011C88.6096 147.434 89.5557 148.06 90.3851 148.837L175.252 55.0718L129.156 6.47324V6.48688ZM91.6351 150.253C93.2471 152.446 94.0765 155.347 93.8428 158.316L318.502 211.029C318.537 210.906 318.561 210.77 318.596 210.647C318.923 209.53 319.39 208.522 319.963 207.623L176.537 56.4339L91.6351 150.253ZM284.322 457.685L370.298 505.276C371.653 502.606 373.92 500.795 376.443 500.168L368.791 420.419L284.275 451.774C284.743 453.654 284.789 455.683 284.31 457.685H284.322ZM428.671 1728.78C429.512 1725.87 431.323 1723.66 433.519 1722.45L402.072 1621.91L267.723 1829.68C268.342 1830.34 268.867 1831.08 269.311 1831.89L428.846 1736.34C428.04 1734.01 427.912 1731.34 428.659 1728.78H428.671ZM385.683 1586.48C385.391 1586.38 385.122 1586.24 384.842 1586.1L268.716 1824.81L401.36 1619.66L391.056 1586.7C389.339 1587.23 387.482 1587.21 385.671 1586.48H385.683ZM264.44 1827.41C264.732 1827.52 265.001 1827.65 265.281 1827.79L383.358 1585.08C381.723 1583.76 380.531 1581.88 379.889 1579.74L209.221 1629.34L259.627 1827.04C261.181 1826.67 262.84 1826.77 264.452 1827.39L264.44 1827.41ZM197.739 1550.73L379.538 1573.97C379.62 1573.53 379.714 1573.08 379.842 1572.65C380.38 1570.81 381.302 1569.24 382.459 1568.04L311.785 1456.91L196.559 1545.32C197.341 1546.96 197.762 1548.82 197.739 1550.74V1550.73ZM312.194 1454.19L358.874 1418.38C357.706 1415.82 357.402 1412.73 358.266 1409.76C358.453 1409.1 358.699 1408.49 358.979 1407.92L205.46 1283.96C205.18 1284.31 204.876 1284.62 204.549 1284.92L312.194 1454.2V1454.19ZM207.574 1279.91C207.317 1280.8 206.955 1281.61 206.535 1282.36L359.96 1406.26C361.07 1404.72 362.518 1403.57 364.119 1402.95L328.922 1230.3L207.937 1274.71C208.17 1276.4 208.065 1278.18 207.563 1279.91H207.574ZM330.184 1227.73L479.906 1172.77C479.766 1171.99 479.684 1171.2 479.696 1170.41L322.673 1152.31C322.591 1152.79 322.497 1153.27 322.357 1153.74C321.388 1157.08 319.157 1159.5 316.493 1160.55L330.184 1227.72V1227.73ZM642.957 388.056C641.018 387.049 639.5 385.332 638.542 383.262L524.074 439.869L581.209 582.151C582.879 581.456 584.725 581.293 586.547 581.81L642.957 388.07V388.056ZM476.869 -37.0176L476.554 59.9344L558.582 59.444C558.652 58.5859 558.792 57.7415 559.037 56.8834C559.423 55.5622 560.007 54.3908 560.731 53.3828L481.974 -39.4693C480.525 -38.0936 478.75 -37.2355 476.881 -37.0312L476.869 -37.0176ZM558.593 61.4599L476.554 61.9503L476.32 132.737C477.021 132.819 477.734 132.982 478.423 133.254C479.941 133.854 481.238 134.875 482.266 136.156L559.995 66.2408C559.224 64.8106 558.733 63.1761 558.593 61.4735V61.4599ZM377.518 62.5496C377.436 63.2987 377.296 64.0342 377.085 64.7697C376.875 65.4916 376.606 66.159 376.291 66.7856L468.108 136.782C469.708 134.439 472.056 132.968 474.591 132.71L474.825 61.9503L377.518 62.5359V62.5496ZM336.293 217.648C336.036 218.547 335.663 219.378 335.242 220.141L404.525 284.839L470.024 152.46C468.797 151.452 467.816 150.117 467.138 148.605L336.387 210.974C336.936 213.085 336.959 215.401 336.305 217.648H336.293ZM374.796 365.732L487.406 369.301C487.464 369.028 487.523 368.756 487.604 368.484C487.861 367.585 488.235 366.754 488.656 365.991L405.004 287.863L370.847 356.906C373.301 358.935 374.772 362.232 374.796 365.719V365.732ZM316.505 1139.92C317.182 1140.19 317.813 1140.54 318.397 1140.97L388.767 1031.78L317.428 931.984C316.61 932.189 315.769 932.257 314.916 932.189L314.379 1139.41C315.08 1139.5 315.792 1139.66 316.493 1139.93L316.505 1139.92ZM427.515 957.823L403.591 951.271L322.182 928.961C321.329 929.969 320.313 930.772 319.215 931.317L389.842 1030.12L430.353 967.262C428.192 964.878 427.082 961.364 427.515 957.823ZM319.787 1142.18C321.738 1144.25 322.86 1147.2 322.848 1150.31L446.649 1164.58L479.871 1168.41C479.953 1167.94 480.047 1167.46 480.187 1166.98C480.666 1165.35 481.448 1163.94 482.418 1162.8L389.912 1033.38L319.787 1142.18ZM324.39 924.82C324.133 925.692 323.794 926.482 323.385 927.217L427.912 955.861C427.912 955.861 427.912 955.848 427.912 955.834C428.578 953.546 429.828 951.707 431.405 950.413L397.189 878.06L324.845 920.489C324.939 921.905 324.787 923.363 324.378 924.793L324.39 924.82ZM397.914 875.418L562.156 779.092C561.876 778.248 561.689 777.362 561.584 776.464L379.258 783.07L361.771 783.696C361.701 784.527 361.561 785.371 361.327 786.202C360.708 788.327 359.586 790.084 358.161 791.351L397.914 875.418ZM575.835 587.953C576.653 585.815 578.008 584.112 579.643 582.995L522.486 440.646L387.248 507.523C387.751 509.362 387.844 511.378 387.435 513.367L575.835 587.953ZM762.775 270.687C762.518 270.224 762.284 269.747 762.086 269.243L611.394 328.139L641.392 369.192C643.752 367.258 646.836 366.617 649.768 367.775C651.263 368.361 652.536 369.355 653.552 370.608L687.429 339.621L762.775 270.687ZM493.457 382.308C492.359 381.873 491.378 381.205 490.525 380.388L385.508 503.832C385.917 504.404 386.267 505.017 386.571 505.657L521.75 438.807L499.111 382.417C497.324 383.03 495.361 383.044 493.469 382.295L493.457 382.308ZM494.613 361.319L475.549 154.462C474.509 154.475 473.446 154.312 472.407 153.89C472.103 153.767 471.799 153.631 471.507 153.468L405.88 286.106L489.742 364.425C491.062 362.831 492.756 361.755 494.613 361.319ZM480.782 152.473C479.731 153.331 478.528 153.944 477.266 154.244L496.331 361.101C497.37 361.087 498.433 361.251 499.473 361.673C502.055 362.695 503.994 364.901 505.01 367.598L608.427 327.186L480.794 152.487L480.782 152.473ZM505.547 369.505C505.664 370.091 505.746 370.69 505.781 371.303L585.531 374.586L637.479 376.724C637.56 376.016 637.701 375.307 637.899 374.613C638.366 373.019 639.114 371.643 640.06 370.513L609.618 328.834L505.536 369.505H505.547ZM637.432 378.726L505.734 373.373C505.652 374.082 505.512 374.79 505.314 375.498C504.496 378.29 502.802 380.456 500.711 381.696L523.338 438.044L637.864 381.41C637.631 380.551 637.479 379.652 637.432 378.726ZM383.709 519.741C382.12 521.035 380.193 521.757 378.207 521.716L369.317 618.001L355.077 772.227C355.206 772.268 355.346 772.309 355.474 772.364C357.344 773.099 358.874 774.461 359.972 776.177L491.506 667.716L383.709 519.727V519.741ZM381.349 500.509C382.447 500.945 383.417 501.598 384.258 502.402L488.995 378.536C488.539 377.827 488.165 377.051 487.873 376.234L370.485 419.793L378.172 499.95C379.223 499.923 380.298 500.1 381.349 500.522V500.509ZM483.901 148.128C483.446 149.286 482.827 150.294 482.102 151.166L610.191 326.477L761.513 267.35C761.163 265.716 761.116 263.972 761.455 262.242L483.901 148.128ZM575.274 589.86L386.875 515.273C386.419 516.486 385.776 517.548 385.017 518.447L492.908 666.572L576.267 597.842C575.111 595.499 574.69 592.653 575.274 589.874V589.86ZM492.628 669.269L360.871 777.907C361.362 779.079 361.666 780.359 361.771 781.667L561.525 774.434C561.572 773.494 561.724 772.541 561.993 771.601C562.46 770.007 563.219 768.618 564.165 767.487L492.616 669.255L492.628 669.269ZM562.927 780.89L398.743 877.188L432.911 949.446C435.002 948.343 437.432 948.111 439.769 949.037C440.575 949.351 441.31 949.8 441.976 950.318L564.165 782.715C563.698 782.157 563.277 781.544 562.915 780.877L562.927 780.89ZM433.764 969.673C433.028 969.373 432.339 968.978 431.72 968.501L390.986 1031.71L483.761 1161.51C484.345 1161.04 484.976 1160.65 485.63 1160.33L438.378 970.081C436.883 970.381 435.306 970.272 433.776 969.659L433.764 969.673ZM324.553 918.432L396.372 876.317L356.689 792.413C355.042 793.38 353.15 793.789 351.246 793.489L318.97 911.186C321.797 912.48 323.806 915.217 324.553 918.432ZM370.275 417.749L487.336 374.313C487.149 373.332 487.079 372.324 487.137 371.303L374.644 367.734C374.562 368.266 374.457 368.783 374.305 369.314C373.079 373.51 369.89 376.261 366.338 376.656L370.287 417.749H370.275ZM368.464 355.503C368.768 355.626 369.072 355.762 369.364 355.925L403.661 286.61L334.179 221.721C333.245 222.838 332.135 223.723 330.896 224.281L363.687 355.135C365.229 354.781 366.876 354.876 368.476 355.503H368.464ZM241.416 -1.83536L324.273 203.905C326.201 203.088 328.362 203.006 330.453 203.823C332.824 204.763 334.658 206.711 335.733 209.108L466.484 146.739C465.935 144.628 465.912 142.312 466.566 140.065C466.659 139.765 466.765 139.466 466.87 139.179L244.301 -5.2133C243.554 -3.82399 242.561 -2.67984 241.416 -1.83536ZM377.564 60.5337L474.825 59.948L475.14 -37.0312C474.439 -37.1129 473.727 -37.2764 473.038 -37.5488C471.706 -38.08 470.538 -38.9381 469.592 -40.0005L375.824 54.922C376.828 56.5565 377.447 58.5042 377.564 60.5473V60.5337ZM564.878 70.722C563.359 70.1227 562.063 69.1011 561.035 67.8207L484.427 136.728L581.454 75.4211L574.352 68.2566C571.91 70.9808 568.289 72.0704 564.878 70.722ZM483.995 139.288C484.777 141.413 484.988 143.838 484.462 146.221L761.572 260.158L762.156 259.9C762.389 259.355 762.646 258.823 762.95 258.333L582.856 76.8104L483.995 139.275V139.288ZM763.85 272.267L654.604 372.202C656.099 374.899 656.555 378.331 655.608 381.614C654.137 386.653 649.826 389.609 645.469 388.901L678.703 424.546L764.702 273.18C764.399 272.894 764.118 272.594 763.85 272.267ZM644.149 390.208L588.171 582.437C588.381 582.546 588.58 582.669 588.778 582.791L677.733 426.221L644.137 390.195L644.149 390.208ZM581.361 602.718C579.713 602.064 578.323 600.92 577.272 599.476L494.041 668.111L565.497 766.207C567.039 764.954 568.885 764.246 570.8 764.232L582.716 603.113C582.26 603.018 581.816 602.895 581.372 602.718H581.361ZM443.32 951.584C445.796 954.431 446.812 958.763 445.621 962.849C445.224 964.224 444.605 965.437 443.834 966.472L512.778 1050.14L567.039 785.045C566.49 784.759 565.964 784.404 565.485 784.009L443.32 951.571V951.584ZM442.584 967.861C441.813 968.583 440.948 969.155 440.026 969.55L487.266 1159.78C488.27 1159.56 489.298 1159.52 490.35 1159.69L512.299 1052.47L442.584 967.861ZM480.42 1174.69L330.581 1229.69L365.801 1402.47C367.203 1402.24 368.686 1402.36 370.123 1402.93C370.45 1403.07 370.766 1403.22 371.069 1403.38L483.586 1179.34C482.161 1178.15 481.086 1176.53 480.42 1174.69ZM364.107 1423.57C362.355 1422.87 360.895 1421.62 359.82 1420.05L313.222 1455.81L383.837 1566.84C384.632 1566.29 385.508 1565.86 386.419 1565.59L367.682 1424.13C366.502 1424.21 365.299 1424.04 364.107 1423.57ZM397.54 1579.66C396.687 1582.58 394.888 1584.78 392.68 1586.01L402.61 1617.74L427.958 1578.54C426.487 1576.98 425.482 1574.89 425.096 1572.63L398.03 1576C398.042 1577.21 397.902 1578.44 397.54 1579.65V1579.66ZM431.241 1580.81C430.563 1580.53 429.921 1580.18 429.337 1579.76L403.31 1619.99L435.131 1721.74C435.551 1721.6 435.984 1721.52 436.428 1721.47L433.601 1581.35C432.818 1581.28 432.024 1581.12 431.241 1580.81ZM270.106 1833.67C270.912 1836 271.04 1838.67 270.293 1841.23C269.522 1843.89 267.956 1845.96 266.005 1847.23L276.904 1875.77L429.582 1738.16L270.106 1833.67ZM264.428 1848.04C262.548 1848.79 260.457 1848.85 258.436 1848.04C257.665 1847.74 256.952 1847.32 256.31 1846.82L172.32 1969.17C172.483 1969.32 172.635 1969.46 172.787 1969.61L275.503 1877.03L264.44 1848.03L264.428 1848.04ZM169.609 1967.5C170.042 1967.66 170.439 1967.88 170.836 1968.11L254.955 1845.58C253.833 1844.31 253.004 1842.74 252.537 1841.03L128.724 1872.4L163.033 1967.75C165.054 1966.77 167.378 1966.61 169.609 1967.5ZM252.163 1839.05C251.999 1837.47 252.116 1835.84 252.583 1834.23C252.77 1833.59 253.004 1832.99 253.284 1832.42L63.1672 1679.81C62.2911 1680.71 61.2748 1681.41 60.1767 1681.87L128.035 1870.52L252.151 1839.07L252.163 1839.05ZM65.8773 1675.11C65.5268 1676.31 65.0128 1677.39 64.382 1678.33L254.277 1830.76C255.282 1829.37 256.543 1828.29 257.969 1827.63L207.539 1629.83L66.3562 1670.85C66.438 1672.25 66.2978 1673.7 65.8773 1675.11ZM208.708 1627.42L379.445 1577.81C379.363 1577.21 379.328 1576.6 379.34 1575.98L197.552 1552.75C197.47 1553.21 197.376 1553.66 197.248 1554.12C196.313 1557.32 194.234 1559.68 191.723 1560.8L208.708 1627.43V1627.42ZM191.407 1540.28C193.113 1540.95 194.526 1542.15 195.589 1543.66L310.757 1455.29L203.112 1286.01C201.85 1286.79 200.449 1287.24 199 1287.28L189.48 1539.77C190.122 1539.85 190.765 1540.01 191.407 1540.27V1540.28ZM207.516 1272.75L328.525 1228.33L314.799 1161.02C313.398 1161.25 311.926 1161.12 310.477 1160.55C309.274 1160.08 308.211 1159.34 307.311 1158.43L206.231 1269.95C206.768 1270.81 207.189 1271.75 207.504 1272.75H207.516ZM306.996 1142.44C308.526 1140.71 310.536 1139.62 312.673 1139.4L313.211 931.862C312.989 931.794 312.767 931.726 312.545 931.644C311.493 931.222 310.547 930.595 309.73 929.832L212.212 1048.03L307.008 1142.44H306.996ZM308.468 928.429C307.066 926.536 306.26 924.125 306.202 921.592L73.1081 903.381C73.0263 903.98 72.9095 904.566 72.7343 905.152C72.4423 906.173 72.0217 907.099 71.5194 907.93L210.869 1046.71L308.456 928.429H308.468ZM73.225 901.365L306.318 919.576C306.4 918.977 306.517 918.391 306.692 917.805C306.891 917.124 307.136 916.484 307.44 915.885L215.273 840.304L72.9563 898.968C73.1198 899.744 73.2133 900.548 73.2366 901.351L73.225 901.365ZM308.421 914.25C310.571 911.308 313.947 909.864 317.299 910.627L349.54 793.04C349.54 793.04 349.482 793.026 349.447 793.013C346.924 792.018 345.008 789.866 343.968 787.251L217.235 839.486L308.398 914.237L308.421 914.25ZM353.383 771.846L376.501 521.498C376.116 521.403 375.73 521.294 375.345 521.144C370.462 519.21 367.834 513.026 369.504 507.319C369.527 507.237 369.562 507.169 369.586 507.088L283.738 459.565C282.745 461.976 281.051 463.787 279.042 464.795L351.503 771.846C352.122 771.764 352.753 771.764 353.395 771.846H353.383ZM283.656 449.894L368.605 418.376L364.598 376.656C363.885 376.574 363.161 376.411 362.448 376.138C360.988 375.566 359.738 374.599 358.734 373.387L282.733 448.205C283.084 448.737 283.388 449.309 283.645 449.894H283.656ZM358.079 359.14C359.119 357.587 360.486 356.402 362.028 355.68L329.238 224.826C327.696 225.18 326.049 225.085 324.448 224.458C323.596 224.118 322.813 223.641 322.112 223.069L270.608 294.21L358.079 359.14ZM320.792 221.789C318.865 219.501 317.86 216.272 318.164 213.003L93.5392 160.292C93.4924 160.482 93.4574 160.659 93.399 160.85C93.2471 161.368 93.0602 161.844 92.8616 162.307L269.136 293.148L320.792 221.802V221.789ZM80.2455 147.665C81.4721 146.93 82.8389 146.507 84.2407 146.453L112.265 -181.165C111.856 -181.26 111.447 -181.369 111.038 -181.533C110.828 -181.615 110.629 -181.724 110.431 -181.819L15.6232 25.3787L80.2455 147.652V147.665ZM108.924 -182.759C106.237 -184.829 104.637 -188.37 104.718 -192.103L-107.5 -220.76C-107.582 -220.338 -107.664 -219.916 -107.792 -219.507C-108.423 -217.355 -109.568 -215.571 -111.028 -214.304L14.5836 23.3901L108.924 -182.772V-182.759ZM131.679 1.9648C131.352 3.0817 130.885 4.08961 130.313 4.98859L176.513 53.6825L229.033 -4.34157C228.029 -5.83984 227.386 -7.63779 227.153 -9.53105L132.17 -1.34502C132.147 -0.255356 131.995 0.861542 131.679 1.95119V1.9648ZM361.047 68.2294C359.072 65.4644 358.325 61.6234 359.329 57.9594L260.959 3.29962L361.047 68.2294ZM576.735 63.898C576.431 64.9332 576.01 65.8866 575.485 66.7311L583.078 74.3859L715.838 -9.5038L576.805 57.1966C577.365 59.3078 577.389 61.637 576.723 63.898H576.735ZM731.188 -6.75243C729.985 -6.65707 728.735 -6.82053 727.52 -7.31087C725.487 -8.11449 723.864 -9.65364 722.766 -11.5742L584.491 75.8025L764.095 256.835C765.251 255.541 766.665 254.615 768.195 254.152L731.188 -6.75243ZM903.292 206.765C901.961 205.676 900.909 204.218 900.232 202.556L776.209 256.018C779.328 258.769 780.741 263.645 779.409 268.194C778.113 272.648 774.597 275.468 770.777 275.577L757.285 504.677L903.292 206.765ZM755.451 506.829L769.071 275.427C768.569 275.332 768.067 275.196 767.564 275.005C767.062 274.814 766.607 274.555 766.151 274.283L679.988 425.922L755.439 506.842L755.451 506.829ZM754.61 508.667L679.03 427.611L590.227 583.908C591.22 584.848 592.038 586.006 592.622 587.3L754.61 508.667ZM567.833 789.812L514.192 1051.87L649.733 1216.38C650.597 1215.58 651.567 1214.98 652.606 1214.57L567.822 789.825L567.833 789.812ZM647.034 1229.31C646.287 1227.35 646.03 1225.14 646.38 1222.94L497.756 1174.36C495.968 1179.81 490.805 1182.69 486.027 1180.79C485.7 1180.66 485.385 1180.51 485.07 1180.34L372.553 1404.39C373.441 1405.13 374.188 1406.05 374.796 1407.07L647.023 1229.31H647.034ZM370.485 1423.42C370.123 1423.58 369.761 1423.72 369.387 1423.83L388.124 1565.29C389.304 1565.21 390.507 1565.37 391.699 1565.85C394.97 1567.14 397.213 1570.34 397.843 1574.02L424.91 1570.66C424.898 1569.45 425.038 1568.22 425.4 1567.01C426.124 1564.51 427.55 1562.53 429.325 1561.25L370.485 1423.45V1423.42ZM431.697 1740.79C431.334 1740.45 430.996 1740.1 430.68 1739.72L277.617 1877.68L305.606 1951.02C307.487 1950.27 309.578 1950.21 311.599 1951.02C312.078 1951.21 312.533 1951.45 312.977 1951.72L431.697 1740.81V1740.79ZM299.251 1961.37C299.251 1960.2 299.403 1959 299.742 1957.83C300.513 1955.17 302.078 1953.1 304.029 1951.83L276.215 1878.93L173.967 1971.09C174.784 1972.32 175.368 1973.73 175.684 1975.25L299.251 1961.37ZM158.664 1972.07C159.4 1970.7 160.369 1969.55 161.491 1968.69L127.007 1872.82L41.8016 1894.41C41.8834 1895.81 41.7432 1897.27 41.3226 1898.68C41.1474 1899.28 40.9255 1899.84 40.6685 1900.39L158.652 1972.06L158.664 1972.07ZM64.9427 1665.83C65.445 1666.77 65.8188 1667.79 66.0641 1668.85L207.037 1627.89L190.064 1561.31C188.557 1561.64 186.956 1561.53 185.391 1560.91C183.861 1560.29 182.553 1559.27 181.525 1557.98L64.9427 1665.81V1665.83ZM195.706 1266.1C197.587 1265.35 199.701 1265.28 201.734 1266.09C203.03 1266.6 204.175 1267.42 205.11 1268.46L306.155 1156.97C304.87 1155.05 304.157 1152.67 304.157 1150.2L151.877 1132.88C151.795 1133.37 151.702 1133.84 151.561 1134.32C150.79 1136.96 149.237 1139.02 147.298 1140.3L195.706 1266.11V1266.1ZM140.043 1120.37C141.831 1119.75 143.805 1119.73 145.709 1120.49C146.76 1120.92 147.707 1121.54 148.524 1122.31L209.677 1048.18L70.398 909.469C69.7322 910.232 68.9728 910.859 68.1434 911.349L140.032 1120.37H140.043ZM74.1711 896.339L213.532 838.887L200.005 827.8C197.598 831.096 193.627 832.54 189.889 831.055C187.856 830.252 186.221 828.699 185.111 826.751L74.1711 896.325V896.339ZM196.08 810.502C198.953 811.714 201.009 814.397 201.839 817.584L343.197 783.873C343.057 782.334 343.174 780.74 343.629 779.188C344.634 775.714 347.005 773.235 349.797 772.255L277.395 465.435C276.028 465.803 274.58 465.817 273.155 465.408L196.091 810.502H196.08ZM265.982 455.261C265.935 453.953 266.087 452.632 266.461 451.324C268.12 445.631 273.423 442.566 278.318 444.514C279.556 445.004 280.654 445.767 281.565 446.734L357.659 371.82C357.495 371.521 357.344 371.221 357.203 370.908L146.573 473.036C146.643 473.295 146.702 473.567 146.76 473.839L265.982 455.261ZM136.726 465.435C138.022 465.286 139.354 465.435 140.662 465.953C141.515 466.294 142.298 466.77 142.999 467.342L268.003 294.687L91.9271 163.996C90.6538 165.917 88.8666 167.279 86.8924 167.878L136.714 465.435H136.726ZM-45.6581 143.089C-44.1395 142.762 -42.5275 142.857 -40.9505 143.484C-40.787 143.552 -40.6234 143.633 -40.4716 143.702L13.6374 25.4468L-112.5 -213.242C-112.909 -213.01 -113.341 -212.806 -113.785 -212.643L-45.6699 143.089H-45.6581Z" fill="url(#paint0_radial_1_1035)"/>
</g>
<defs>
<radialGradient id="paint0_radial_1_1035" cx="0" cy="0" r="1" gradientUnits="userSpaceOnUse" gradientTransform="translate(396 877.436) rotate(90) scale(1111.34 522)">
<stop stop-color="white" stop-opacity="0.45"/>
<stop offset="0.38" stop-color="#928989" stop-opacity="0.15"/>
</radialGradient>
<clipPath id="clip0_1_1035">
<rect width="880" height="1714" fill="white" transform="matrix(-1 0 0 1 852 -10)"/>
</clipPath>
</defs>
</svg>
