<svg width="852" height="1024" viewBox="0 0 852 1024" fill="none" xmlns="http://www.w3.org/2000/svg">
<g clip-path="url(#clip0_1_1180)">
<path d="M-125.501 -195.662C-123.843 -200.544 -118.539 -203.16 -113.645 -201.502C-109.685 -200.158 -107.208 -196.409 -107.302 -192.438L104.917 -167.863C104.999 -168.225 105.081 -168.587 105.209 -168.938C106.868 -173.82 112.171 -176.448 117.066 -174.778C121.949 -173.119 124.577 -167.816 122.907 -162.922C121.738 -159.488 118.771 -157.187 115.419 -156.685L123.199 -12.0623C124.075 -12.0273 124.963 -11.8754 125.839 -11.5717C129.215 -10.4271 131.504 -7.55379 132.053 -4.27168L227.071 -11.3031C227.106 -12.1557 227.258 -13.0201 227.55 -13.8727C229.209 -18.755 234.512 -21.3713 239.407 -19.7127C244.254 -18.0658 246.871 -12.8215 245.282 -7.96259L360.007 46.7119C362.133 42.764 366.841 40.8018 371.233 42.2968C372.565 42.7523 373.733 43.4882 374.679 44.3992L468.447 -36.9993C466.753 -39.3703 466.181 -42.4772 467.185 -45.444C468.844 -50.3263 474.147 -52.9543 479.042 -51.284C483.925 -49.6255 486.553 -44.3227 484.883 -39.4287C484.497 -38.2958 483.913 -37.2913 483.189 -36.427L561.958 43.1962C564.376 41.2222 567.716 40.4864 570.882 41.561C573.242 42.3669 575.076 44.0255 576.151 46.0695L721.586 -13.7559C721.025 -15.5663 721.002 -17.5636 721.668 -19.5025C723.326 -24.3848 728.63 -27.0011 733.524 -25.3426C738.407 -23.684 741.024 -18.3812 739.365 -13.4873C738.314 -10.4037 735.814 -8.23123 732.882 -7.46034L769.889 216.272C771.092 216.19 772.342 216.33 773.557 216.751C773.802 216.832 774.036 216.926 774.27 217.031L899.624 170.696C899.157 168.967 899.18 167.099 899.799 165.276C901.458 160.394 906.762 157.766 911.656 159.436C916.539 161.095 919.167 166.398 917.497 171.292C915.838 176.174 910.535 178.802 905.64 177.132C905.348 177.027 905.056 176.921 904.776 176.793L757.25 434.935L757.74 435.378L756.771 435.787L755.053 438.801L755.217 436.441L593.276 503.859C593.848 505.681 593.872 507.69 593.206 509.64C591.886 513.507 588.288 515.948 584.421 515.971L572.506 654.135C572.962 654.217 573.405 654.322 573.849 654.474C578.732 656.132 581.349 661.435 579.69 666.329C578.136 670.907 573.394 673.489 568.78 672.437L654.277 1039.78C655.667 1039.59 657.127 1039.69 658.552 1040.17C663.435 1041.83 666.052 1047.13 664.393 1052.03C662.734 1056.91 657.431 1059.53 652.536 1057.87C650.55 1057.19 648.95 1055.92 647.852 1054.32L375.625 1206.75C376.548 1208.82 376.735 1211.23 375.941 1213.55C375.216 1215.69 373.791 1217.4 372.016 1218.49L430.855 1336.66C432.83 1335.89 435.073 1335.78 437.234 1336.52C442.116 1338.18 444.745 1343.48 443.074 1348.38C441.871 1351.9 438.776 1354.24 435.306 1354.65L438.133 1474.8C438.916 1474.86 439.71 1475 440.493 1475.27C445.376 1476.93 447.992 1482.23 446.334 1487.12C444.675 1492.01 439.371 1494.62 434.477 1492.96C433.998 1492.8 433.542 1492.59 433.098 1492.36L314.379 1673.22C317.369 1675.6 318.713 1679.69 317.404 1683.52C315.745 1688.41 310.442 1691.02 305.548 1689.36C302.242 1688.24 299.987 1685.46 299.38 1682.26L175.894 1694.16C175.952 1695.32 175.812 1696.5 175.415 1697.66C173.756 1702.54 168.453 1705.17 163.558 1703.5C158.675 1701.84 156.059 1696.54 157.718 1691.64C157.764 1691.51 157.811 1691.4 157.858 1691.28L39.6755 1629.71C37.2808 1632.65 33.239 1633.94 29.4425 1632.66C24.5596 1631 21.943 1625.7 23.6017 1620.8C24.8633 1617.09 28.2393 1614.69 31.9307 1614.48L54.0906 1440.96C54.0906 1440.96 54.0204 1440.94 53.9854 1440.93C49.1025 1439.27 46.4859 1433.97 48.1447 1429.07C49.8034 1424.19 55.1068 1421.57 60.0014 1423.23C61.5317 1423.76 62.8517 1424.63 63.868 1425.76L180.45 1333.28C179.013 1330.98 178.569 1328.09 179.515 1325.32C180.765 1321.64 184.071 1319.26 187.716 1319L197.236 1102.42C196.711 1102.33 196.197 1102.22 195.683 1102.04C190.8 1100.38 188.183 1095.08 189.842 1090.19C190.613 1087.92 192.166 1086.16 194.106 1085.06L145.697 977.171C143.816 977.813 141.702 977.872 139.67 977.183C134.787 975.524 132.158 970.221 133.829 965.327C134.646 962.933 136.329 961.087 138.42 960.025L66.5314 780.782C64.7441 781.319 62.77 781.331 60.8658 780.677C55.983 779.018 53.3663 773.715 55.0251 768.821C56.6838 763.939 61.9873 761.323 66.8819 762.981C68.9145 763.671 70.5499 765.002 71.6596 766.672L184.281 706.099C183.417 704.055 183.253 701.719 184.024 699.453C185.52 695.062 189.947 692.515 194.386 693.24L271.461 397.29L272.29 397.512C269.113 396.425 266.905 393.797 266.192 390.749L146.971 406.68C147.017 407.802 146.865 408.935 146.492 410.056C144.833 414.938 139.529 417.566 134.635 415.896C129.74 414.226 127.135 408.935 128.794 404.041C129.81 401.051 132.193 398.913 135.02 398.084L85.1868 142.874C83.9836 142.956 82.7454 142.816 81.5305 142.395C77.7924 141.134 75.3977 137.735 75.2108 134.021L-34.7476 132.058C-34.8293 132.549 -34.9462 133.039 -35.1097 133.53C-36.7684 138.412 -42.0719 141.04 -46.9665 139.37C-51.8494 137.711 -54.4777 132.409 -52.8073 127.515C-51.8844 124.782 -49.8168 122.773 -47.317 121.803L-115.467 -183.397C-116.834 -183.222 -118.259 -183.339 -119.661 -183.806C-124.544 -185.465 -127.16 -190.768 -125.501 -195.662ZM-34.6191 130.283L75.2809 132.245C75.3627 131.661 75.4911 131.065 75.6898 130.493C76.2972 128.706 77.3953 127.223 78.7854 126.136L14.6771 22.1136L-38.9413 122.609C-36.3013 124.291 -34.6892 127.199 -34.6308 130.295L-34.6191 130.283ZM145.907 402.627L356.538 315.05C355.965 313.228 355.942 311.219 356.608 309.269C356.759 308.825 356.946 308.416 357.157 308.007L269.487 252.2L144.331 400.432C144.973 401.086 145.51 401.822 145.931 402.616L145.907 402.627ZM201.745 705.387C201.547 705.971 201.29 706.52 200.998 707.034L215.518 717.242L340.405 673.091L202.166 701.357C202.306 702.677 202.189 704.044 201.734 705.375L201.745 705.387ZM152.052 968.317L304.333 983.174C304.414 982.754 304.508 982.345 304.648 981.936C304.94 981.06 305.361 980.266 305.863 979.554L210.997 898.529L149.774 962.174C151.234 963.867 152.064 966.051 152.052 968.317ZM33.6946 1614.48C34.2903 1614.56 34.8978 1614.69 35.4936 1614.9C38.5775 1615.95 40.7502 1618.45 41.5329 1621.39L126.341 1602.95L58.5062 1441.24C57.6301 1441.38 56.7306 1441.41 55.8311 1441.28L42.5726 1545.03L33.7062 1614.47L33.6946 1614.48ZM646.847 1045.62C647.244 1044.58 647.805 1043.64 648.494 1042.85L513.724 902.582L492.032 993.441C496.482 994.948 499.041 999.48 498.211 1003.96L646.836 1045.62H646.847ZM366.969 60.3659L454.709 109.177L375.275 57.2473C373.23 59.5834 370.111 60.7981 366.957 60.3659H366.969ZM233.402 -2.0291C232.187 -2.4379 231.113 -3.08031 230.213 -3.87456L177.798 45.7892L321.119 175.345C321.61 174.901 322.147 174.504 322.708 174.177L239.874 -2.2043C237.876 -1.39838 235.598 -1.28157 233.391 -2.0291H233.402ZM119.461 5.96008C114.811 4.16135 112.358 -0.989578 113.982 -5.75505C115.15 -9.189 118.117 -11.49 121.47 -11.9922L113.795 -154.676L86.028 123.684L119.461 5.96008ZM129.156 4.13799C127.03 6.08856 124.063 6.98793 121.119 6.43896L87.5465 124.641C88.6096 125.004 89.5557 125.541 90.3851 126.207L175.252 45.8009L129.156 4.1263V4.13799ZM91.6351 127.421C93.2471 129.302 94.0765 131.79 93.8428 134.336L318.502 179.538C318.537 179.433 318.561 179.316 318.596 179.211C318.923 178.253 319.39 177.389 319.963 176.618L176.537 46.9689L91.6351 127.421ZM284.322 391.052L370.298 431.863C371.653 429.573 373.92 428.02 376.443 427.483L368.791 359.096L284.275 385.983C284.743 387.595 284.789 389.336 284.31 391.052H284.322ZM428.671 1481.05C429.512 1478.55 431.323 1476.66 433.519 1475.62L402.072 1389.41L267.723 1567.58C268.342 1568.14 268.867 1568.78 269.311 1569.47L428.846 1487.53C428.04 1485.53 427.912 1483.25 428.659 1481.05H428.671ZM385.683 1359.03C385.391 1358.93 385.122 1358.82 384.842 1358.7L268.716 1563.39L401.36 1387.48L391.056 1359.21C389.339 1359.67 387.482 1359.65 385.671 1359.03H385.683ZM264.44 1565.63C264.732 1565.72 265.001 1565.84 265.281 1565.95L383.358 1357.82C381.723 1356.69 380.531 1355.08 379.889 1353.25L209.221 1395.77L259.627 1565.31C261.181 1564.99 262.84 1565.08 264.452 1565.61L264.44 1565.63ZM197.739 1328.37L379.538 1348.29C379.62 1347.92 379.714 1347.53 379.842 1347.16C380.38 1345.58 381.302 1344.24 382.459 1343.21L311.785 1247.92L196.559 1323.73C197.341 1325.13 197.762 1326.73 197.739 1328.38V1328.37ZM312.194 1245.58L358.874 1214.87C357.706 1212.68 357.402 1210.03 358.266 1207.48C358.453 1206.92 358.699 1206.39 358.979 1205.9L205.46 1099.6C205.18 1099.91 204.876 1100.17 204.549 1100.43L312.194 1245.59V1245.58ZM207.574 1096.13C207.317 1096.89 206.955 1097.59 206.535 1098.23L359.96 1204.48C361.07 1203.16 362.518 1202.18 364.119 1201.64L328.922 1053.59L207.937 1091.67C208.17 1093.12 208.065 1094.65 207.563 1096.13H207.574ZM330.184 1051.39L479.906 1004.26C479.766 1003.59 479.684 1002.91 479.696 1002.24L322.673 986.714C322.591 987.122 322.497 987.531 322.357 987.94C321.388 990.802 319.157 992.881 316.493 993.78L330.184 1051.37V1051.39ZM642.957 331.344C641.018 330.48 639.5 329.008 638.542 327.232L524.074 375.775L581.209 497.785C582.879 497.189 584.725 497.049 586.547 497.493L642.957 331.356V331.344ZM476.869 -33.1682L476.554 49.9706L558.582 49.5502C558.652 48.8143 558.792 48.0901 559.037 47.3543C559.423 46.2213 560.007 45.2168 560.731 44.3525L481.974 -35.2706C480.525 -34.0909 478.75 -33.3551 476.881 -33.1799L476.869 -33.1682ZM558.593 51.2788L476.554 51.6993L476.32 112.401C477.021 112.471 477.734 112.611 478.423 112.845C479.941 113.358 481.238 114.234 482.266 115.332L559.995 55.3785C559.224 54.1521 558.733 52.7505 558.593 51.2905V51.2788ZM377.518 52.2132C377.436 52.8556 377.296 53.4863 377.085 54.1171C376.875 54.7361 376.606 55.3084 376.291 55.8457L468.108 115.87C469.708 113.861 472.056 112.599 474.591 112.377L474.825 51.6993L377.518 52.2015V52.2132ZM336.293 185.214C336.036 185.985 335.663 186.698 335.242 187.352L404.525 242.832L470.024 129.313C468.797 128.449 467.816 127.304 467.138 126.008L336.387 179.491C336.936 181.302 336.959 183.287 336.305 185.214H336.293ZM374.796 312.2L487.406 315.26C487.464 315.027 487.523 314.793 487.604 314.56C487.861 313.789 488.235 313.076 488.656 312.422L405.004 245.425L370.847 304.632C373.301 306.372 374.772 309.198 374.796 312.189V312.2ZM316.505 976.085C317.182 976.318 317.813 976.622 318.397 976.984L388.767 883.356L317.428 797.776C316.61 797.952 315.769 798.01 314.916 797.952L314.379 975.652C315.08 975.723 315.792 975.863 316.493 976.096L316.505 976.085ZM427.515 819.934L403.591 814.315L322.182 795.183C321.329 796.048 320.313 796.737 319.215 797.204L389.842 881.932L430.353 828.028C428.192 825.984 427.082 822.97 427.515 819.934ZM319.787 978.024C321.738 979.799 322.86 982.333 322.848 984.997L446.649 997.237L479.871 1000.52C479.953 1000.11 480.047 999.702 480.187 999.293C480.666 997.891 481.448 996.688 482.418 995.707L389.912 884.723L319.787 978.024ZM324.39 791.633C324.133 792.38 323.794 793.058 323.385 793.688L427.912 818.252C427.912 818.252 427.912 818.24 427.912 818.228C428.578 816.266 429.828 814.689 431.405 813.58L397.189 751.535L324.845 787.918C324.939 789.133 324.787 790.383 324.378 791.609L324.39 791.633ZM397.914 749.269L562.156 666.667C561.876 665.943 561.689 665.184 561.584 664.413L379.258 670.078L361.771 670.615C361.701 671.328 361.561 672.052 361.327 672.764C360.708 674.587 359.586 676.093 358.161 677.18L397.914 749.269ZM575.835 502.761C576.653 500.927 578.008 499.467 579.643 498.509L522.486 376.441L387.248 433.79C387.751 435.367 387.844 437.095 387.435 438.801L575.835 502.761ZM762.775 230.697C762.518 230.299 762.284 229.891 762.086 229.458L611.394 279.963L641.392 315.167C643.752 313.508 646.836 312.959 649.768 313.952C651.263 314.455 652.536 315.307 653.552 316.382L687.429 289.81L762.775 230.697ZM493.457 326.415C492.359 326.041 491.378 325.469 490.525 324.768L385.508 430.625C385.917 431.115 386.267 431.641 386.571 432.19L521.75 374.864L499.111 326.508C497.324 327.034 495.361 327.046 493.469 326.403L493.457 326.415ZM494.613 308.416L475.549 131.03C474.509 131.042 473.446 130.902 472.407 130.54C472.103 130.435 471.799 130.318 471.507 130.178L405.88 243.918L489.742 311.079C491.062 309.712 492.756 308.79 494.613 308.416ZM480.782 129.325C479.731 130.061 478.528 130.587 477.266 130.844L496.331 308.229C497.37 308.217 498.433 308.357 499.473 308.72C502.055 309.596 503.994 311.488 505.01 313.8L608.427 279.146L480.794 129.337L480.782 129.325ZM505.547 315.436C505.664 315.938 505.746 316.452 505.781 316.977L585.531 319.792L637.479 321.626C637.56 321.019 637.701 320.411 637.899 319.816C638.366 318.449 639.114 317.269 640.06 316.3L609.618 280.559L505.536 315.436H505.547ZM637.432 323.343L505.734 318.753C505.652 319.36 505.512 319.968 505.314 320.575C504.496 322.969 502.802 324.826 500.711 325.889L523.338 374.21L637.864 325.644C637.631 324.908 637.479 324.137 637.432 323.343ZM383.709 444.267C382.12 445.377 380.193 445.996 378.207 445.961L369.317 528.527L355.077 660.781C355.206 660.816 355.346 660.851 355.474 660.898C357.344 661.528 358.874 662.696 359.972 664.168L491.506 571.159L383.709 444.255V444.267ZM381.349 427.775C382.447 428.148 383.417 428.709 384.258 429.398L488.995 323.18C488.539 322.572 488.165 321.906 487.873 321.206L370.485 358.558L378.172 427.296C379.223 427.272 380.298 427.424 381.349 427.786V427.775ZM483.901 125.599C483.446 126.592 482.827 127.456 482.102 128.204L610.191 278.538L761.513 227.835C761.163 226.433 761.116 224.938 761.455 223.455L483.901 125.599ZM575.274 504.396L386.875 440.436C386.419 441.475 385.776 442.386 385.017 443.157L492.908 570.178L576.267 511.241C575.111 509.232 574.69 506.79 575.274 504.408V504.396ZM492.628 572.491L360.871 665.651C361.362 666.656 361.666 667.754 361.771 668.875L561.525 662.673C561.572 661.867 561.724 661.049 561.993 660.243C562.46 658.877 563.219 657.685 564.165 656.716L492.616 572.479L492.628 572.491ZM562.927 668.209L398.743 750.787L432.911 812.75C435.002 811.804 437.432 811.606 439.769 812.4C440.575 812.669 441.31 813.054 441.976 813.498L564.165 669.774C563.698 669.296 563.277 668.77 562.915 668.198L562.927 668.209ZM433.764 830.095C433.028 829.838 432.339 829.5 431.72 829.091L390.986 883.298L483.761 994.598C484.345 994.2 484.976 993.862 485.63 993.593L438.378 830.446C436.883 830.703 435.306 830.609 433.776 830.084L433.764 830.095ZM324.553 786.155L396.372 750.04L356.689 678.091C355.042 678.92 353.15 679.27 351.246 679.013L318.97 779.941C321.797 781.051 323.806 783.398 324.553 786.155ZM370.275 356.806L487.336 319.559C487.149 318.718 487.079 317.853 487.137 316.977L374.644 313.917C374.562 314.373 374.457 314.817 374.305 315.272C373.079 318.87 369.89 321.229 366.338 321.568L370.287 356.806H370.275ZM368.464 303.428C368.768 303.534 369.072 303.65 369.364 303.791L403.661 244.351L334.179 188.707C333.245 189.664 332.135 190.424 330.896 190.903L363.687 303.113C365.229 302.809 366.876 302.891 368.476 303.428H368.464ZM241.416 -2.99855L324.273 173.429C326.201 172.728 328.362 172.658 330.453 173.359C332.824 174.165 334.658 175.835 335.733 177.891L466.484 124.408C465.935 122.597 465.912 120.612 466.566 118.685C466.659 118.428 466.765 118.171 466.87 117.925L244.301 -5.89522C243.554 -4.70384 242.561 -3.72272 241.416 -2.99855ZM377.564 50.4846L474.825 49.9823L475.14 -33.1799C474.439 -33.25 473.727 -33.3901 473.038 -33.6237C471.706 -34.0793 470.538 -34.8151 469.592 -35.7262L375.824 45.6724C376.828 47.074 377.447 48.7442 377.564 50.4962V50.4846ZM564.878 59.2213C563.359 58.7073 562.063 57.8313 561.035 56.7334L484.427 115.823L581.454 63.2509L574.352 57.1072C571.91 59.4432 568.289 60.3776 564.878 59.2213ZM483.995 118.019C484.777 119.841 484.988 121.92 484.462 123.964L761.572 221.668L762.156 221.446C762.389 220.979 762.646 220.523 762.95 220.103L582.856 64.4423L483.995 118.007V118.019ZM763.85 232.051L654.604 317.748C656.099 320.061 656.555 323.004 655.608 325.819C654.137 330.141 649.826 332.675 645.469 332.068L678.703 362.635L764.702 232.834C764.399 232.589 764.118 232.332 763.85 232.051ZM644.149 333.189L588.171 498.03C588.381 498.124 588.58 498.229 588.778 498.334L677.733 364.071L644.137 333.178L644.149 333.189ZM581.361 515.422C579.713 514.861 578.323 513.88 577.272 512.642L494.041 571.498L565.497 655.618C567.039 654.544 568.885 653.936 570.8 653.924L582.716 515.761C582.26 515.679 581.816 515.574 581.372 515.422H581.361ZM443.32 814.584C445.796 817.025 446.812 820.74 445.621 824.244C445.224 825.423 444.605 826.463 443.834 827.35L512.778 899.101L567.039 671.772C566.49 671.526 565.964 671.223 565.485 670.884L443.32 814.572V814.584ZM442.584 828.542C441.813 829.161 440.948 829.651 440.026 829.99L487.266 993.114C488.27 992.927 489.298 992.892 490.35 993.044L512.299 901.099L442.584 828.542ZM480.42 1005.9L330.581 1053.07L365.801 1201.23C367.203 1201.03 368.686 1201.14 370.123 1201.63C370.45 1201.74 370.766 1201.87 371.069 1202.01L483.586 1009.89C482.161 1008.87 481.086 1007.48 480.42 1005.9ZM364.107 1219.32C362.355 1218.73 360.895 1217.65 359.82 1216.31L313.222 1246.97L383.837 1342.19C384.632 1341.71 385.508 1341.34 386.419 1341.11L367.682 1219.8C366.502 1219.87 365.299 1219.73 364.107 1219.32ZM397.54 1353.18C396.687 1355.68 394.888 1357.57 392.68 1358.62L402.61 1385.83L427.958 1352.22C426.487 1350.88 425.482 1349.09 425.096 1347.15L398.03 1350.03C398.042 1351.07 397.902 1352.12 397.54 1353.16V1353.18ZM431.241 1354.16C430.563 1353.92 429.921 1353.62 429.337 1353.26L403.31 1387.76L435.131 1475.01C435.551 1474.89 435.984 1474.82 436.428 1474.78L433.601 1354.62C432.818 1354.57 432.024 1354.43 431.241 1354.16ZM270.106 1571C270.912 1573 271.04 1575.28 270.293 1577.48C269.522 1579.76 267.956 1581.53 266.005 1582.62L276.904 1607.1L429.582 1489.1L270.106 1571ZM264.428 1583.32C262.548 1583.96 260.457 1584.01 258.436 1583.32C257.665 1583.06 256.952 1582.7 256.31 1582.27L172.32 1687.19C172.483 1687.32 172.635 1687.44 172.787 1687.57L275.503 1608.18L264.44 1583.31L264.428 1583.32ZM169.609 1685.75C170.042 1685.9 170.439 1686.08 170.836 1686.28L254.955 1581.21C253.833 1580.12 253.004 1578.78 252.537 1577.31L128.724 1604.2L163.033 1685.98C165.054 1685.14 167.378 1685 169.609 1685.75ZM252.163 1575.61C251.999 1574.26 252.116 1572.86 252.583 1571.48C252.77 1570.93 253.004 1570.41 253.284 1569.92L63.1672 1439.06C62.2911 1439.83 61.2748 1440.43 60.1767 1440.82L128.035 1602.59L252.151 1575.62L252.163 1575.61ZM65.8773 1435.03C65.5268 1436.06 65.0128 1436.98 64.382 1437.79L254.277 1568.5C255.282 1567.31 256.543 1566.38 257.969 1565.81L207.539 1396.19L66.3562 1431.37C66.438 1432.58 66.2978 1433.82 65.8773 1435.03ZM208.708 1394.13L379.445 1351.59C379.363 1351.07 379.328 1350.55 379.34 1350.02L197.552 1330.1C197.47 1330.49 197.376 1330.88 197.248 1331.28C196.313 1334.02 194.234 1336.04 191.723 1337L208.708 1394.14V1394.13ZM191.407 1319.41C193.113 1319.98 194.526 1321.01 195.589 1322.31L310.757 1246.53L203.112 1101.37C201.85 1102.03 200.449 1102.42 199 1102.45L189.48 1318.97C190.122 1319.04 190.765 1319.18 191.407 1319.4V1319.41ZM207.516 1089.99L328.525 1051.9L314.799 994.177C313.398 994.376 311.926 994.271 310.477 993.78C309.274 993.371 308.211 992.74 307.311 991.958L206.231 1087.59C206.768 1088.33 207.189 1089.14 207.504 1089.99H207.516ZM306.996 978.245C308.526 976.762 310.536 975.828 312.673 975.641L313.211 797.671C312.989 797.613 312.767 797.555 312.545 797.484C311.493 797.122 310.547 796.585 309.73 795.931L212.212 897.291L307.008 978.245H306.996ZM308.468 794.728C307.066 793.104 306.26 791.037 306.202 788.865L73.1081 773.248C73.0263 773.762 72.9095 774.264 72.7343 774.767C72.4423 775.643 72.0217 776.437 71.5194 777.149L210.869 896.158L308.456 794.728H308.468ZM73.225 771.52L306.318 787.136C306.4 786.622 306.517 786.12 306.692 785.617C306.891 785.034 307.136 784.484 307.44 783.971L215.273 719.158L72.9563 769.464C73.1198 770.13 73.2133 770.819 73.2366 771.508L73.225 771.52ZM308.421 782.569C310.571 780.046 313.947 778.808 317.299 779.462L349.54 678.628C349.54 678.628 349.482 678.616 349.447 678.605C346.924 677.752 345.008 675.906 343.968 673.664L217.235 718.457L308.398 782.557L308.421 782.569ZM353.383 660.454L376.501 445.774C376.116 445.692 375.73 445.599 375.345 445.47C370.462 443.811 367.834 438.509 369.504 433.615C369.527 433.545 369.562 433.486 369.586 433.416L283.738 392.664C282.745 394.732 281.051 396.285 279.042 397.149L351.503 660.454C352.122 660.384 352.753 660.384 353.395 660.454H353.383ZM283.656 384.371L368.605 357.344L364.598 321.568C363.885 321.498 363.161 321.357 362.448 321.124C360.988 320.633 359.738 319.804 358.734 318.764L282.733 382.923C283.084 383.379 283.388 383.869 283.645 384.371H283.656ZM358.079 306.547C359.119 305.216 360.486 304.199 362.028 303.58L329.238 191.37C327.696 191.673 326.049 191.592 324.448 191.054C323.596 190.762 322.813 190.354 322.112 189.863L270.608 250.868L358.079 306.547ZM320.792 188.765C318.865 186.803 317.86 184.035 318.164 181.231L93.5392 136.03C93.4924 136.193 93.4574 136.345 93.399 136.508C93.2471 136.952 93.0602 137.361 92.8616 137.758L269.136 249.957L320.792 188.777V188.765ZM80.2455 125.202C81.4721 124.571 82.8389 124.209 84.2407 124.163L112.265 -156.779C111.856 -156.86 111.447 -156.954 111.038 -157.094C110.828 -157.164 110.629 -157.257 110.431 -157.339L15.6232 20.3383L80.2455 125.19V125.202ZM108.924 -158.145C106.237 -159.921 104.637 -162.957 104.718 -166.158L-107.5 -190.733C-107.582 -190.37 -107.664 -190.008 -107.792 -189.658C-108.423 -187.813 -109.568 -186.282 -111.028 -185.196L14.5836 18.633L108.924 -158.157V-158.145ZM131.679 0.260193C131.352 1.21796 130.885 2.08228 130.313 2.85316L176.513 44.6095L229.033 -5.14769C228.029 -6.4325 227.386 -7.97427 227.153 -9.59781L132.17 -2.57806C132.147 -1.64366 131.995 -0.685883 131.679 0.24852V0.260193ZM361.047 57.0838C359.072 54.7128 358.325 51.419 359.329 48.277L260.959 1.40483L361.047 57.0838ZM576.735 53.3695C576.431 54.2572 576.01 55.0749 575.485 55.799L583.078 62.3632L715.838 -9.57443L576.805 47.6229C577.365 49.4333 577.389 51.4306 576.723 53.3695H576.735ZM731.188 -7.21506C729.985 -7.1333 728.735 -7.27345 727.52 -7.69394C725.487 -8.38306 723.864 -9.70293 722.766 -11.3498L584.491 63.5779L764.095 218.818C765.251 217.708 766.665 216.914 768.195 216.517L731.188 -7.21506ZM903.292 175.882C901.961 174.948 900.909 173.698 900.232 172.273L776.209 218.117C779.328 220.477 780.741 224.658 779.409 228.559C778.113 232.379 774.597 234.796 770.777 234.89L757.285 431.349L903.292 175.882ZM755.451 433.194L769.071 234.761C768.569 234.68 768.067 234.563 767.564 234.399C767.062 234.236 766.607 234.014 766.151 233.78L679.988 363.815L755.439 433.206L755.451 433.194ZM754.61 434.771L679.03 365.263L590.227 499.292C591.22 500.098 592.038 501.091 592.622 502.2L754.61 434.771ZM567.833 675.86L514.192 900.585L649.733 1041.66C650.597 1040.97 651.567 1040.45 652.606 1040.1L567.822 675.871L567.833 675.86ZM647.034 1052.74C646.287 1051.06 646.03 1049.17 646.38 1047.27L497.756 1005.62C495.968 1010.3 490.805 1012.76 486.027 1011.14C485.7 1011.02 485.385 1010.89 485.07 1010.75L372.553 1202.88C373.441 1203.51 374.188 1204.3 374.796 1205.18L647.023 1052.74H647.034ZM370.485 1219.19C370.123 1219.33 369.761 1219.45 369.387 1219.54L388.124 1340.85C389.304 1340.78 390.507 1340.92 391.699 1341.33C394.97 1342.44 397.213 1345.19 397.843 1348.34L424.91 1345.46C424.898 1344.42 425.038 1343.36 425.4 1342.33C426.124 1340.19 427.55 1338.48 429.325 1337.38L370.485 1219.22V1219.19ZM431.697 1491.35C431.334 1491.06 430.996 1490.76 430.68 1490.43L277.617 1608.74L305.606 1671.62C307.487 1670.98 309.578 1670.93 311.599 1671.62C312.078 1671.79 312.533 1672 312.977 1672.23L431.697 1491.36V1491.35ZM299.251 1680.5C299.251 1679.49 299.403 1678.47 299.742 1677.46C300.513 1675.18 302.078 1673.41 304.029 1672.32L276.215 1609.81L173.967 1688.84C174.784 1689.89 175.368 1691.1 175.684 1692.4L299.251 1680.5ZM158.664 1689.68C159.4 1688.5 160.369 1687.52 161.491 1686.78L127.007 1604.57L41.8016 1623.08C41.8834 1624.28 41.7432 1625.53 41.3226 1626.75C41.1474 1627.26 40.9255 1627.74 40.6685 1628.21L158.652 1689.67L158.664 1689.68ZM64.9427 1427.06C65.445 1427.87 65.8188 1428.75 66.0641 1429.66L207.037 1394.54L190.064 1337.44C188.557 1337.72 186.956 1337.63 185.391 1337.09C183.861 1336.57 182.553 1335.69 181.525 1334.58L64.9427 1427.05V1427.06ZM195.706 1084.29C197.587 1083.65 199.701 1083.59 201.734 1084.28C203.03 1084.72 204.175 1085.42 205.11 1086.31L306.155 990.708C304.87 989.061 304.157 987.017 304.157 984.903L151.877 970.046C151.795 970.467 151.702 970.875 151.561 971.284C150.79 973.55 149.237 975.314 147.298 976.412L195.706 1084.3V1084.29ZM140.043 959.324C141.831 958.786 143.805 958.775 145.709 959.429C146.76 959.791 147.707 960.328 148.524 960.982L209.677 897.419L70.398 778.469C69.7322 779.123 68.9728 779.661 68.1434 780.081L140.032 959.324H140.043ZM74.1711 767.21L213.532 717.943L200.005 708.435C197.598 711.262 193.627 712.5 189.889 711.227C187.856 710.538 186.221 709.206 185.111 707.536L74.1711 767.198V767.21ZM196.08 693.602C198.953 694.641 201.009 696.942 201.839 699.675L343.197 670.767C343.057 669.447 343.174 668.081 343.629 666.749C344.634 663.771 347.005 661.645 349.797 660.804L277.395 397.698C276.028 398.014 274.58 398.026 273.155 397.675L196.091 693.602H196.08ZM265.982 388.973C265.935 387.852 266.087 386.719 266.461 385.598C268.12 380.716 273.423 378.088 278.318 379.758C279.556 380.178 280.654 380.832 281.565 381.662L357.659 317.421C357.495 317.164 357.344 316.907 357.203 316.639L146.573 404.216C146.643 404.438 146.702 404.672 146.76 404.905L265.982 388.973ZM136.726 397.698C138.022 397.57 139.354 397.698 140.662 398.142C141.515 398.434 142.298 398.843 142.999 399.334L268.003 251.277L91.9271 139.207C90.6538 140.853 88.8666 142.021 86.8924 142.535L136.714 397.698H136.726ZM-45.6581 121.278C-44.1395 120.997 -42.5275 121.079 -40.9505 121.616C-40.787 121.675 -40.6234 121.745 -40.4716 121.803L13.6374 20.3967L-112.5 -184.285C-112.909 -184.087 -113.341 -183.911 -113.785 -183.771L-45.6699 121.278H-45.6581Z" fill="url(#paint0_radial_1_1180)"/>
</g>
<defs>
<radialGradient id="paint0_radial_1_1180" cx="0" cy="0" r="1" gradientUnits="userSpaceOnUse" gradientTransform="translate(396 751) rotate(90) scale(953 522)">
<stop stop-color="white" stop-opacity="0.45"/>
<stop offset="0.38" stop-color="#928989" stop-opacity="0.15"/>
</radialGradient>
<clipPath id="clip0_1_1180">
<rect width="880" height="1469.8" fill="white" transform="matrix(-1 0 0 1 852 -10)"/>
</clipPath>
</defs>
</svg>
